<?xml version="1.0" encoding="UTF-8" standalone="no"?>
<svg
   xmlns:dc="http://purl.org/dc/elements/1.1/"
   xmlns:cc="http://creativecommons.org/ns#"
   xmlns:rdf="http://www.w3.org/1999/02/22-rdf-syntax-ns#"
   xmlns:svg="http://www.w3.org/2000/svg"
   xmlns="http://www.w3.org/2000/svg"
   xmlns:sodipodi="http://sodipodi.sourceforge.net/DTD/sodipodi-0.dtd"
   xmlns:inkscape="http://www.inkscape.org/namespaces/inkscape"
   version="1.1"
   width="122"
   height="77"
   id="svg3167"
   inkscape:version="0.48.4 r9939"
   sodipodi:docname="Message-Routing__Process-Manager.svg">
  <title
     id="title3397">Process Manager</title>
  <metadata
     id="metadata3309">
    <rdf:RDF>
      <cc:Work
         rdf:about="">
        <dc:format>image/svg+xml</dc:format>
        <dc:type
           rdf:resource="http://purl.org/dc/dcmitype/StillImage" />
        <dc:title>Process Manager</dc:title>
        <dc:description>Enterprise Integration Patterns - Message Routing - Process Manager</dc:description>
        <cc:license
           rdf:resource="http://creativecommons.org/licenses/by/3.0/" />
        <dc:creator>
          <cc:Agent>
            <dc:title>comSysto GmbH</dc:title>
          </cc:Agent>
        </dc:creator>
        <dc:publisher>
          <cc:Agent>
            <dc:title>comSysto GmbH</dc:title>
          </cc:Agent>
        </dc:publisher>
        <dc:source>http://comsysto.com</dc:source>
        <dc:contributor>
          <cc:Agent>
            <dc:title />
          </cc:Agent>
        </dc:contributor>
        <dc:subject>
          <rdf:Bag>
            <rdf:li>EIP</rdf:li>
            <rdf:li>Enterprise Integration Patterns</rdf:li>
          </rdf:Bag>
        </dc:subject>
        <dc:date>2014-11-05</dc:date>
      </cc:Work>
      <cc:License
         rdf:about="http://creativecommons.org/licenses/by/3.0/">
        <cc:permits
           rdf:resource="http://creativecommons.org/ns#Reproduction" />
        <cc:permits
           rdf:resource="http://creativecommons.org/ns#Distribution" />
        <cc:requires
           rdf:resource="http://creativecommons.org/ns#Notice" />
        <cc:requires
           rdf:resource="http://creativecommons.org/ns#Attribution" />
        <cc:permits
           rdf:resource="http://creativecommons.org/ns#DerivativeWorks" />
      </cc:License>
    </rdf:RDF>
  </metadata>
  <sodipodi:namedview
     pagecolor="#ffffff"
     bordercolor="#666666"
     borderopacity="1"
     objecttolerance="10"
     gridtolerance="10"
     guidetolerance="10"
     inkscape:pageopacity="0"
     inkscape:pageshadow="2"
     inkscape:window-width="1920"
     inkscape:window-height="944"
     id="namedview3307"
     showgrid="false"
     fit-margin-top="0"
     fit-margin-left="0"
     fit-margin-right="0"
     fit-margin-bottom="0"
     inkscape:zoom="4"
     inkscape:cx="69.218296"
     inkscape:cy="54.917297"
     inkscape:window-x="0"
     inkscape:window-y="22"
     inkscape:window-maximized="1"
     inkscape:current-layer="svg3167"
     showguides="true"
     inkscape:guide-bbox="true" />
  <defs
     id="defs3169" />
  <g
     id="g3177"
     transform="translate(0.99999999,0.99999999)"
     style="stroke-width:1;stroke-miterlimit:4;stroke-dasharray:none">
    <g
       id="g3179"
       style="stroke-width:1;stroke-miterlimit:4;stroke-dasharray:none">
      <g
         id="g3181"
         transform="scale(1.2,0.75)"
         style="stroke-width:1.05409255;stroke-miterlimit:4;stroke-dasharray:none">
        <g
           id="g3183"
           style="stroke-width:1.05409255;stroke-miterlimit:4;stroke-dasharray:none">
          <path
             style="fill:#c0f5a9;stroke:none;stroke-width:1.05409255;stroke-miterlimit:4;stroke-dasharray:none"
             inkscape:connector-curvature="0"
             id="path3185"
             d="m 0,0 100,0 q 0,0 0,0 l 0,100 q 0,0 0,0 L 0,100 q 0,0 0,0 L 0,0 q 0,0 0,0 z" />
          <g
             id="g3187"
             transform="scale(0.83333333,1.3333333)"
             style="stroke-width:1.00000001;stroke-miterlimit:4;stroke-dasharray:none">
            <path
               style="fill:none;stroke:none;stroke-width:1.00000001;stroke-miterlimit:4;stroke-dasharray:none"
               inkscape:connector-curvature="0"
               id="path3189"
               d="m 0,0 120,0 q 0,0 0,0 l 0,75 q 0,0 0,0 L 0,75 q 0,0 0,0 L 0,0 q 0,0 0,0 z" />
            <path
               style="fill:none;stroke:#333333;stroke-width:1.00000001;stroke-miterlimit:4;stroke-dasharray:none"
               inkscape:connector-curvature="0"
               id="path3191"
               stroke-miterlimit="10"
               d="m 0,0 m 0,0 120,0 q 0,0 0,0 l 0,75 q 0,0 0,0 L 0,75 q 0,0 0,0 L 0,0 q 0,0 0,0 z" />
          </g>
        </g>
        <g
           id="g3193"
           style="stroke-width:1.05409255;stroke-miterlimit:4;stroke-dasharray:none">
          <g
             id="g3195"
             transform="scale(0.83333333,1.3333333)"
             style="stroke-width:1.00000001;stroke-miterlimit:4;stroke-dasharray:none">
            <path
               style="opacity:0;fill:#000000;fill-opacity:0;stroke:none;stroke-width:1.00000001;stroke-miterlimit:4;stroke-dasharray:none"
               inkscape:connector-curvature="0"
               id="path3197"
               d="m 2.4,1.5 0,71.25 114,0 0,-70.5 -112.8,0 z" />
            <path
               style="opacity:0;fill:none;stroke:#3c7626;stroke-width:1.00000001;stroke-miterlimit:4;stroke-dasharray:none"
               inkscape:connector-curvature="0"
               id="path3199"
               stroke-miterlimit="10"
               d="m 2.4,1.5 m 0,0 0,4 m 0,0 m 0,2 0,4 m 0,0 m 0,2 0,4 m 0,0 m 0,2 0,4 m 0,0 m 0,2 0,4 m 0,0 m 0,2 0,4 m 0,0 m 0,2 0,4 m 0,0 m 0,2 0,4 m 0,0 m 0,2 0,4 m 0,0 m 0,2 0,4 m 0,0 m 0,2 0,4 m 0,0 m 0,2 0,4 m 0,0 m 0.75,1.25 4,0 m 0,0 m 2,0 4,0 m 0,0 m 2,0 4,0 m 0,0 m 2,0 4,0 m 0,0 m 2,0 4,0 m 0,0 m 2,0 4,0 m 0,0 m 2,0 4,0 m 0,0 m 2,0 4,0 m 0,0 m 2,0 4,0 m 0,0 m 2,0 4,0 m 0,0 m 2,0 4,0 m 0,0 m 2,0 4,0 m 0,0 m 2,0 4,0 m 0,0 m 2,0 4,0 m 0,0 m 2,0 4,0 m 0,0 m 2,0 4,0 m 0,0 m 2,0 4,0 m 0,0 m 2,0 4,0 m 0,0 m 2,0 4,0 m 0,0 m 1.25,-0.75 0,-4 m 0,0 m 0,-2 0,-4 m 0,0 m 0,-2 0,-4 m 0,0 m 0,-2 0,-4 m 0,0 m 0,-2 0,-4 m 0,0 m 0,-2 0,-4 m 0,0 m 0,-2 0,-4 m 0,0 m 0,-2 0,-4 m 0,0 m 0,-2 0,-4 m 0,0 m 0,-2 0,-4 m 0,0 m 0,-2 0,-4 m 0,0 m 0,-2 0,-3.75 -0.25,0 m 0,0 m -2,0 -4,0 m 0,0 m -2,0 -4,0 m 0,0 m -2,0 -4,0 m 0,0 m -2,0 -4,0 m 0,0 m -2,0 -4,0 m 0,0 m -2,0 -4,0 m 0,0 m -2,0 -4,0 m 0,0 m -2,0 -4,0 m 0,0 m -2,0 -4,0 m 0,0 m -2,0 -4,0 m 0,0 m -2,0 -4,0 m 0,0 m -2,0 -4,0 m 0,0 m -2,0 -4,0 m 0,0 m -2,0 -4,0 m 0,0 m -2,0 -4,0 m 0,0 m -2,0 -4,0 m 0,0 m -2,0 -4,0 m 0,0 m -2,0 -4,0 m 0,0 m -2,0 -2.55,0 z" />
          </g>
        </g>
      </g>
    </g>
  </g>
  <rect
     style="fill:#000000;fill-opacity:1;stroke:none"
     id="rect4175"
     width="1.5"
     height="35.001629"
     x="60.25"
     y="17.603188" />
  <path
     sodipodi:type="arc"
     style="fill:#e6e6e6;fill-opacity:1;stroke:#000000;stroke-width:1;stroke-miterlimit:4;stroke-opacity:1;stroke-dasharray:none"
     id="path3811"
     sodipodi:cx="56.375"
     sodipodi:cy="11.625"
     sodipodi:rx="5.625"
     sodipodi:ry="5.625"
     d="m 62,11.625 a 5.625,5.625 0 1 1 -11.25,0 5.625,5.625 0 1 1 11.25,0 z"
     transform="translate(4.6249998,1.75)" />
  <rect
     style="fill:#e6e6e6;fill-opacity:1;stroke:#000000;stroke-width:1;stroke-miterlimit:4;stroke-opacity:1;stroke-dasharray:none"
     id="rect3059-2-2-0"
     width="23.766928"
     height="17.016928"
     x="49.116535"
     y="52.116535" />
  <rect
     style="fill:#000000;fill-opacity:1;stroke:none"
     id="rect4175-3"
     width="71.46875"
     height="1.5"
     x="25.5"
     y="34.613129" />
  <rect
     style="fill:#000000;fill-opacity:1;stroke:none"
     id="rect4175-7"
     width="1.5"
     height="29.013348"
     x="24.087128"
     y="34.612469" />
  <rect
     style="fill:#000000;fill-opacity:1;stroke:none"
     id="rect4175-7-0"
     width="1.5"
     height="30.763348"
     x="96.212013"
     y="34.612469" />
  <rect
     style="fill:#e6e6e6;stroke:#000000;stroke-width:1;stroke-miterlimit:4;stroke-opacity:1;stroke-dasharray:none"
     id="rect3059"
     width="11.513616"
     height="11.513616"
     x="62.382214"
     y="-23.884813"
     transform="matrix(0.70710678,0.70710678,-0.70710678,0.70710678,0,0)" />
  <rect
     style="fill:#e6e6e6;fill-opacity:1;stroke:#000000;stroke-width:1;stroke-miterlimit:4;stroke-opacity:1;stroke-dasharray:none"
     id="rect3059-2-2"
     width="23.766928"
     height="17.016928"
     x="12.953663"
     y="52.116535" />
  <rect
     style="fill:#e6e6e6;fill-opacity:1;stroke:#000000;stroke-width:1;stroke-miterlimit:4;stroke-opacity:1;stroke-dasharray:none"
     id="rect3059-2-2-0-3"
     width="23.766928"
     height="17.016928"
     x="85.078552"
     y="52.116535" />
</svg>
