<?xml version="1.0" encoding="UTF-8" standalone="no"?>
<svg
   xmlns:dc="http://purl.org/dc/elements/1.1/"
   xmlns:cc="http://creativecommons.org/ns#"
   xmlns:rdf="http://www.w3.org/1999/02/22-rdf-syntax-ns#"
   xmlns:svg="http://www.w3.org/2000/svg"
   xmlns="http://www.w3.org/2000/svg"
   xmlns:sodipodi="http://sodipodi.sourceforge.net/DTD/sodipodi-0.dtd"
   xmlns:inkscape="http://www.inkscape.org/namespaces/inkscape"
   version="1.1"
   width="122"
   height="77"
   id="svg3167"
   inkscape:version="0.48.5 r10040"
   sodipodi:docname="System-Management__Control-Bus.svg">
  <title
     id="title3033">Control Bus</title>
  <metadata
     id="metadata3309">
    <rdf:RDF>
      <cc:Work
         rdf:about="">
        <dc:format>image/svg+xml</dc:format>
        <dc:type
           rdf:resource="http://purl.org/dc/dcmitype/StillImage" />
        <dc:title>Control Bus</dc:title>
        <dc:description>Enterprise Integration Patterns - System Management - Control Bus</dc:description>
        <cc:license
           rdf:resource="http://creativecommons.org/licenses/by/3.0/" />
        <dc:creator>
          <cc:Agent>
            <dc:title>comSysto GmbH</dc:title>
          </cc:Agent>
        </dc:creator>
        <dc:publisher>
          <cc:Agent>
            <dc:title>comSysto GmbH</dc:title>
          </cc:Agent>
        </dc:publisher>
        <dc:source>http://comsysto.com</dc:source>
        <dc:contributor>
          <cc:Agent>
            <dc:title />
          </cc:Agent>
        </dc:contributor>
        <dc:subject>
          <rdf:Bag>
            <rdf:li>EIP</rdf:li>
            <rdf:li>Enterprise Integration Patterns</rdf:li>
          </rdf:Bag>
        </dc:subject>
        <dc:date>2014-11-05</dc:date>
      </cc:Work>
      <cc:License
         rdf:about="http://creativecommons.org/licenses/by/3.0/">
        <cc:permits
           rdf:resource="http://creativecommons.org/ns#Reproduction" />
        <cc:permits
           rdf:resource="http://creativecommons.org/ns#Distribution" />
        <cc:requires
           rdf:resource="http://creativecommons.org/ns#Notice" />
        <cc:requires
           rdf:resource="http://creativecommons.org/ns#Attribution" />
        <cc:permits
           rdf:resource="http://creativecommons.org/ns#DerivativeWorks" />
      </cc:License>
    </rdf:RDF>
  </metadata>
  <sodipodi:namedview
     pagecolor="#ffffff"
     bordercolor="#666666"
     borderopacity="1"
     objecttolerance="10"
     gridtolerance="10"
     guidetolerance="10"
     inkscape:pageopacity="0"
     inkscape:pageshadow="2"
     inkscape:window-width="1440"
     inkscape:window-height="789"
     id="namedview3307"
     showgrid="false"
     fit-margin-top="0"
     fit-margin-left="0"
     fit-margin-right="0"
     fit-margin-bottom="0"
     inkscape:zoom="5.1787154"
     inkscape:cx="42.245096"
     inkscape:cy="56.877575"
     inkscape:window-x="0"
     inkscape:window-y="0"
     inkscape:window-maximized="1"
     inkscape:current-layer="svg3167" />
  <defs
     id="defs3169" />
  <path
     style="fill:#e6e6e6;fill-opacity:1;stroke:#000000;stroke-width:2;stroke-linecap:butt;stroke-linejoin:miter;stroke-miterlimit:4;stroke-opacity:1;stroke-dasharray:none"
     d="m 42.345238,50.421187 c 0.02111,-7.337636 0,-22.013 0,-22.013 -0.0069,-1.305114 0.399584,-2.42347 2.317177,-2.317464 0.274442,-0.0026 33.493953,0.0152 33.888712,0 1.89127,0.0089 2.294956,1.364777 2.268903,2.317464 -0.0037,0.349242 -0.0033,21.623748 0,22.013 -0.0014,1.766103 -0.410307,2.768633 -2.196491,2.775679 -0.409622,0.01703 -33.553181,0.01161 -33.864575,0 -0.9631,-0.01161 -2.418696,-1.047945 -2.413726,-2.775679 z"
     id="path3037"
     inkscape:connector-curvature="0"
     sodipodi:nodetypes="ccccccccc" />
  <path
     sodipodi:nodetypes="ccccccccc"
     inkscape:connector-curvature="0"
     id="path3061"
     d="m 45.421679,48.05968 c 0.01474,-5.697628 0,-17.092951 0,-17.092951 -0.0048,-1.013414 0.278918,-1.881809 1.617441,-1.799498 0.191566,-0.002 23.379522,0.0118 23.655074,0 1.320147,0.0069 1.60193,1.059741 1.583744,1.799498 -0.0025,0.271183 -0.0023,16.790699 0,17.092951 -9.4e-4,1.371367 -0.286404,2.149825 -1.5332,2.155296 -0.285925,0.01322 -23.420865,0.009 -23.638225,0 -0.672265,-0.009 -1.688303,-0.813723 -1.684834,-2.155296 z"
     style="fill:#808080;fill-opacity:1;stroke:#000000;stroke-width:0.40000001;stroke-linecap:butt;stroke-linejoin:miter;stroke-miterlimit:4;stroke-opacity:1;stroke-dasharray:none" />
  <path
     sodipodi:type="arc"
     style="fill:#000000;fill-opacity:1;stroke:none"
     id="path3831"
     sodipodi:cx="49.291286"
     sodipodi:cy="52.286087"
     sodipodi:rx="1.7750325"
     sodipodi:ry="1.7750325"
     d="m 51.066319,52.286087 a 1.7750325,1.7750325 0 1 1 -3.550065,0 1.7750325,1.7750325 0 1 1 3.550065,0 z"
     transform="translate(26.716495,-9.2499905)" />
  <path
     transform="translate(26.716494,-4.1979745)"
     d="m 51.066319,52.286087 a 1.7750325,1.7750325 0 1 1 -3.550065,0 1.7750325,1.7750325 0 1 1 3.550065,0 z"
     sodipodi:ry="1.7750325"
     sodipodi:rx="1.7750325"
     sodipodi:cy="52.286087"
     sodipodi:cx="49.291286"
     id="path3855"
     style="fill:#000000;fill-opacity:1;stroke:none"
     sodipodi:type="arc" />
  <path
     style="fill:none;stroke:#0bf100;stroke-width:1.80760622;stroke-linecap:butt;stroke-linejoin:miter;stroke-miterlimit:4;stroke-opacity:1;stroke-dasharray:none"
     d="m 48.100058,42.461477 c 0,0 3.519884,2.773646 6.619437,-9.382819 -0.594724,12.432965 1.541583,10.423522 3.129189,12.871304 1.221824,-4.346468 5.255801,-4.566509 6.499084,-4.330532 0.718331,-3.71152 1.4528,-1.707179 2.768128,-7.698724 -0.489974,3.331128 -0.99487,9.13428 0,11.548085 1.35593,-1.194971 1.925655,-1.92468 1.925655,-1.92468"
     id="path3859"
     inkscape:connector-curvature="0"
     sodipodi:nodetypes="ccccccc" />
</svg>
