<?xml version="1.0" encoding="UTF-8" standalone="no"?>
<svg
   xmlns:dc="http://purl.org/dc/elements/1.1/"
   xmlns:cc="http://creativecommons.org/ns#"
   xmlns:rdf="http://www.w3.org/1999/02/22-rdf-syntax-ns#"
   xmlns:svg="http://www.w3.org/2000/svg"
   xmlns="http://www.w3.org/2000/svg"
   xmlns:sodipodi="http://sodipodi.sourceforge.net/DTD/sodipodi-0.dtd"
   xmlns:inkscape="http://www.inkscape.org/namespaces/inkscape"
   version="1.1"
   width="122"
   height="77"
   id="svg3167"
   inkscape:version="0.48.4 r9939"
   sodipodi:docname="System-Management__Message-Store.svg">
  <title
     id="title3017">Message Store</title>
  <metadata
     id="metadata3309">
    <rdf:RDF>
      <cc:Work
         rdf:about="">
        <dc:format>image/svg+xml</dc:format>
        <dc:type
           rdf:resource="http://purl.org/dc/dcmitype/StillImage" />
        <dc:title>Message Store</dc:title>
        <dc:description>Enterprise Integration Patterns - System Management - Message Store</dc:description>
        <cc:license
           rdf:resource="" />
        <dc:creator>
          <cc:Agent>
            <dc:title>comSysto GmbH</dc:title>
          </cc:Agent>
        </dc:creator>
        <dc:publisher>
          <cc:Agent>
            <dc:title>comSysto GmbH</dc:title>
          </cc:Agent>
        </dc:publisher>
        <dc:source>http://comsysto.com</dc:source>
        <dc:contributor>
          <cc:Agent>
            <dc:title />
          </cc:Agent>
        </dc:contributor>
        <dc:subject>
          <rdf:Bag>
            <rdf:li>EIP</rdf:li>
            <rdf:li>Enterprise Integration Patterns</rdf:li>
          </rdf:Bag>
        </dc:subject>
        <dc:date>2014-11-05</dc:date>
      </cc:Work>
      <cc:License
         rdf:about="http://creativecommons.org/licenses/by/3.0/">
        <cc:permits
           rdf:resource="http://creativecommons.org/ns#Reproduction" />
        <cc:permits
           rdf:resource="http://creativecommons.org/ns#Distribution" />
        <cc:requires
           rdf:resource="http://creativecommons.org/ns#Notice" />
        <cc:requires
           rdf:resource="http://creativecommons.org/ns#Attribution" />
        <cc:permits
           rdf:resource="http://creativecommons.org/ns#DerivativeWorks" />
      </cc:License>
    </rdf:RDF>
  </metadata>
  <sodipodi:namedview
     pagecolor="#ffffff"
     bordercolor="#666666"
     borderopacity="1"
     objecttolerance="10"
     gridtolerance="10"
     guidetolerance="10"
     inkscape:pageopacity="0"
     inkscape:pageshadow="2"
     inkscape:window-width="1349"
     inkscape:window-height="942"
     id="namedview3307"
     showgrid="false"
     fit-margin-top="0"
     fit-margin-left="0"
     fit-margin-right="0"
     fit-margin-bottom="0"
     inkscape:zoom="2.5893577"
     inkscape:cx="-19.787486"
     inkscape:cy="-27.713529"
     inkscape:window-x="571"
     inkscape:window-y="24"
     inkscape:window-maximized="0"
     inkscape:current-layer="svg3167" />
  <defs
     id="defs3169">
    <linearGradient
       id="linearGradient3075">
      <stop
         id="stop3083"
         offset="0"
         style="stop-color:#9c9c9c;stop-opacity:1;" />
      <stop
         style="stop-color:#c4c4c4;stop-opacity:1;"
         offset="0.5"
         id="stop3085" />
      <stop
         style="stop-color:#919191;stop-opacity:1;"
         offset="1"
         id="stop3079" />
    </linearGradient>
    <linearGradient
       id="linearGradient3065">
      <stop
         style="stop-color:#000000;stop-opacity:1;"
         offset="0"
         id="stop3067" />
      <stop
         id="stop3073"
         offset="0.5"
         style="stop-color:#000000;stop-opacity:0.49803922;" />
      <stop
         style="stop-color:#000000;stop-opacity:0;"
         offset="1"
         id="stop3069" />
    </linearGradient>
  </defs>
  <g
     id="g3177"
     transform="translate(0.99999999,0.99999999)"
     style="fill:#c0f5a9;fill-opacity:1">
    <g
       id="g3179"
       style="fill:#c0f5a9;fill-opacity:1">
      <g
         id="g3181"
         transform="scale(1.2,0.75)"
         style="fill:#c0f5a9;fill-opacity:1">
        <g
           id="g3183"
           style="fill:#c0f5a9;fill-opacity:1">
          <path
             style="fill:#c0f5a9;stroke:none;fill-opacity:1"
             inkscape:connector-curvature="0"
             id="path3185"
             d="m 0,0 100,0 q 0,0 0,0 l 0,100 q 0,0 0,0 L 0,100 q 0,0 0,0 L 0,0 q 0,0 0,0 z" />
          <g
             id="g3187"
             transform="scale(0.83333333,1.3333333)"
             style="fill:#c0f5a9;fill-opacity:1">
            <path
               style="fill:#c0f5a9;stroke:none;fill-opacity:1"
               inkscape:connector-curvature="0"
               id="path3189"
               d="m 0,0 120,0 q 0,0 0,0 l 0,75 q 0,0 0,0 L 0,75 q 0,0 0,0 L 0,0 q 0,0 0,0 z" />
            <path
               style="fill:#c0f5a9;stroke:#333333;stroke-width:2;stroke-miterlimit:10;fill-opacity:1"
               inkscape:connector-curvature="0"
               id="path3191"
               stroke-miterlimit="10"
               d="m 0,0 m 0,0 120,0 q 0,0 0,0 l 0,75 q 0,0 0,0 L 0,75 q 0,0 0,0 L 0,0 q 0,0 0,0 z" />
          </g>
        </g>
        <g
           id="g3193"
           style="fill:#c0f5a9;fill-opacity:1">
          <g
             id="g3195"
             transform="scale(0.83333333,1.3333333)"
             style="fill:#c0f5a9;fill-opacity:1">
            <path
               style="opacity:0;fill:#c0f5a9;fill-opacity:1;stroke:none"
               inkscape:connector-curvature="0"
               id="path3197"
               d="m 2.4,1.5 0,71.25 114,0 0,-70.5 -112.8,0 z" />
            <path
               style="opacity:0;fill:#c0f5a9;stroke:#3c7626;stroke-width:2;stroke-miterlimit:10;fill-opacity:1"
               inkscape:connector-curvature="0"
               id="path3199"
               stroke-miterlimit="10"
               d="m 2.4,1.5 m 0,0 0,4 m 0,0 m 0,2 0,4 m 0,0 m 0,2 0,4 m 0,0 m 0,2 0,4 m 0,0 m 0,2 0,4 m 0,0 m 0,2 0,4 m 0,0 m 0,2 0,4 m 0,0 m 0,2 0,4 m 0,0 m 0,2 0,4 m 0,0 m 0,2 0,4 m 0,0 m 0,2 0,4 m 0,0 m 0,2 0,4 m 0,0 m 0.75,1.25 4,0 m 0,0 m 2,0 4,0 m 0,0 m 2,0 4,0 m 0,0 m 2,0 4,0 m 0,0 m 2,0 4,0 m 0,0 m 2,0 4,0 m 0,0 m 2,0 4,0 m 0,0 m 2,0 4,0 m 0,0 m 2,0 4,0 m 0,0 m 2,0 4,0 m 0,0 m 2,0 4,0 m 0,0 m 2,0 4,0 m 0,0 m 2,0 4,0 m 0,0 m 2,0 4,0 m 0,0 m 2,0 4,0 m 0,0 m 2,0 4,0 m 0,0 m 2,0 4,0 m 0,0 m 2,0 4,0 m 0,0 m 2,0 4,0 m 0,0 m 1.25,-0.75 0,-4 m 0,0 m 0,-2 0,-4 m 0,0 m 0,-2 0,-4 m 0,0 m 0,-2 0,-4 m 0,0 m 0,-2 0,-4 m 0,0 m 0,-2 0,-4 m 0,0 m 0,-2 0,-4 m 0,0 m 0,-2 0,-4 m 0,0 m 0,-2 0,-4 m 0,0 m 0,-2 0,-4 m 0,0 m 0,-2 0,-4 m 0,0 m 0,-2 0,-3.75 -0.25,0 m 0,0 m -2,0 -4,0 m 0,0 m -2,0 -4,0 m 0,0 m -2,0 -4,0 m 0,0 m -2,0 -4,0 m 0,0 m -2,0 -4,0 m 0,0 m -2,0 -4,0 m 0,0 m -2,0 -4,0 m 0,0 m -2,0 -4,0 m 0,0 m -2,0 -4,0 m 0,0 m -2,0 -4,0 m 0,0 m -2,0 -4,0 m 0,0 m -2,0 -4,0 m 0,0 m -2,0 -4,0 m 0,0 m -2,0 -4,0 m 0,0 m -2,0 -4,0 m 0,0 m -2,0 -4,0 m 0,0 m -2,0 -4,0 m 0,0 m -2,0 -4,0 m 0,0 m -2,0 -2.55,0 z" />
          </g>
        </g>
      </g>
    </g>
  </g>
  <path
     style="fill:#808080;fill-opacity:1;stroke:none"
     d="M 61.155944,57.633908 C 39.581188,56.777388 38.939938,53.915434 38.939938,53.915434 L 39.89205,22.471487 c 0,0 0.78955,-2.968473 21.501905,-3.29405 0.0038,2.333543 -0.232455,33.056119 -0.238011,38.456471 z"
     id="path3022"
     inkscape:connector-curvature="0"
     sodipodi:nodetypes="ccccc" />
  <path
     style="fill:#e6e6e6;fill-opacity:1;stroke:none"
     d="M 60.838792,57.699253 C 82.413548,56.842732 83.054798,53.980778 83.054798,53.980778 L 82.102684,22.53683 c 0,0 -0.630874,-2.968469 -21.34323,-3.294046 -0.0038,2.333539 0.07379,33.056116 0.07934,38.456469 z"
     id="path3022-9"
     inkscape:connector-curvature="0"
     sodipodi:nodetypes="ccccc" />
  <path
     style="fill:#b0b0b0;fill-opacity:1;stroke:none"
     d="m 65.787894,57.545566 0,-33.176379 L 51.8716,24.227469 c 0.0051,0 0,29.345728 0,32.991552 7.545926,0.688598 13.916294,0.326545 13.916294,0.326545 z"
     id="path3823"
     inkscape:connector-curvature="0"
     sodipodi:nodetypes="ccccc" />
  <path
     style="fill:#e6e6e6;fill-opacity:1;stroke:none"
     d="m 39.575375,22.248854 c 0.04847,1.825351 12.238572,3.077215 20.945059,3.169284 8.706485,0.09206 21.923001,-0.866352 22.690478,-2.744535 0.767477,-1.878184 -12.758821,-3.345977 -22.05578,-3.397995 -9.296958,-0.05202 -21.628223,1.147897 -21.579757,2.973246 z"
     id="path3821"
     inkscape:connector-curvature="0"
     sodipodi:nodetypes="zzzzz" />
  <path
     style="fill:none;stroke:#000000;stroke-width:2;stroke-miterlimit:4;stroke-opacity:1;stroke-dashoffset:0;stroke-dasharray:none"
     d="m 82.70343,22.800597 c 0.211273,1.829688 0,29.471426 0,31.366133 0,1.894707 -9.733813,3.43067 -21.739617,3.43067 -12.005803,0 -21.737764,-1.535963 -21.737764,-3.43067 0,-1.894707 -0.0526,-29.128031 0,-31.366133 0.0526,-2.238108 8.384727,-3.392302 21.578605,-3.397984 13.193878,-0.0057 21.687502,1.568291 21.898776,3.397984 z"
     id="path2997"
     inkscape:connector-curvature="0"
     sodipodi:nodetypes="zssszzz" />
  <path
     style="fill:none;stroke:#000000;stroke-width:2;stroke-linecap:butt;stroke-linejoin:miter;stroke-miterlimit:4;stroke-opacity:1;stroke-dasharray:none"
     d="m 39.260303,22.281995 c 0,0 0.928003,2.793742 21.465748,2.87429 20.537745,0.08054 21.689211,-2.808963 21.689211,-2.808963"
     id="path3020"
     inkscape:connector-curvature="0"
     sodipodi:nodetypes="czc" />
</svg>
