<?xml version="1.0" encoding="UTF-8" standalone="no"?>
<!-- Created with Inkscape (http://www.inkscape.org/) -->

<svg
   xmlns:dc="http://purl.org/dc/elements/1.1/"
   xmlns:cc="http://creativecommons.org/ns#"
   xmlns:rdf="http://www.w3.org/1999/02/22-rdf-syntax-ns#"
   xmlns:svg="http://www.w3.org/2000/svg"
   xmlns="http://www.w3.org/2000/svg"
   xmlns:sodipodi="http://sodipodi.sourceforge.net/DTD/sodipodi-0.dtd"
   xmlns:inkscape="http://www.inkscape.org/namespaces/inkscape"
   version="1.1"
   width="122"
   height="77"
   id="svg3167"
   inkscape:version="0.48.4 r9939"
   sodipodi:docname="Messaging-Channels__Dead-Letter-Channel.svg">
  <title
     id="title2992">Dead Letter Channel</title>
  <sodipodi:namedview
     pagecolor="#ffffff"
     bordercolor="#666666"
     borderopacity="1"
     objecttolerance="10"
     gridtolerance="10"
     guidetolerance="10"
     inkscape:pageopacity="0"
     inkscape:pageshadow="2"
     inkscape:window-width="1920"
     inkscape:window-height="944"
     id="namedview92"
     showgrid="false"
     inkscape:zoom="2.9180328"
     inkscape:cx="-71.170378"
     inkscape:cy="37.543571"
     inkscape:window-x="0"
     inkscape:window-y="22"
     inkscape:window-maximized="1"
     inkscape:current-layer="svg3167" />
  <metadata
     id="metadata3309">
    <rdf:RDF>
      <cc:Work
         rdf:about="">
        <dc:format>image/svg+xml</dc:format>
        <dc:type
           rdf:resource="http://purl.org/dc/dcmitype/StillImage" />
        <dc:title>Dead Letter Channel</dc:title>
        <dc:description>Enterprise Integration Patterns - Messaging Channels - Dead Letter Channel</dc:description>
        <cc:license
           rdf:resource="http://creativecommons.org/licenses/by/3.0/" />
        <dc:creator>
          <cc:Agent>
            <dc:title>comSysto GmbH</dc:title>
          </cc:Agent>
        </dc:creator>
        <dc:publisher>
          <cc:Agent>
            <dc:title>comSysto GmbH</dc:title>
          </cc:Agent>
        </dc:publisher>
        <dc:source>http://comsysto.com</dc:source>
        <dc:contributor>
          <cc:Agent>
            <dc:title />
          </cc:Agent>
        </dc:contributor>
        <dc:subject>
          <rdf:Bag>
            <rdf:li>EIP</rdf:li>
            <rdf:li>Enterprise Integration Patterns</rdf:li>
          </rdf:Bag>
        </dc:subject>
        <dc:date>2014-11-05</dc:date>
      </cc:Work>
      <cc:License
         rdf:about="http://creativecommons.org/licenses/by/3.0/">
        <cc:permits
           rdf:resource="http://creativecommons.org/ns#Reproduction" />
        <cc:permits
           rdf:resource="http://creativecommons.org/ns#Distribution" />
        <cc:requires
           rdf:resource="http://creativecommons.org/ns#Notice" />
        <cc:requires
           rdf:resource="http://creativecommons.org/ns#Attribution" />
        <cc:permits
           rdf:resource="http://creativecommons.org/ns#DerivativeWorks" />
      </cc:License>
    </rdf:RDF>
  </metadata>
  <defs
     id="defs3169" />
  <g
     id="g3825"
     transform="translate(1.0132704,-7.1966292)">
    <path
       sodipodi:nodetypes="ccccc"
       inkscape:connector-curvature="0"
       id="path3022"
       d="M 9.9377992,45.301 C 12.183739,33.652014 19.68826,33.30578 19.68826,33.30578 l 82.45127,0.51408 c 0,0 7.78383,0.426306 8.63755,11.609651 C 104.65814,45.431611 24.098424,45.304 9.9377992,45.301 z"
       style="fill:#e6e6e6;fill-opacity:1;stroke:none" />
    <path
       sodipodi:nodetypes="ccccc"
       inkscape:connector-curvature="0"
       id="path3022-9"
       d="m 9.7664547,45.129758 c 2.2459403,11.648986 9.7504613,11.99522 9.7504613,11.99522 l 82.451274,-0.51408 c 0,0 7.78382,-0.340632 8.63754,-11.523977 -6.11893,-0.0021 -86.67865,0.03984 -100.8392753,0.04284 z"
       style="fill:#808080;fill-opacity:1;stroke:none" />
    <path
       sodipodi:nodetypes="ccscc"
       inkscape:connector-curvature="0"
       id="path3823"
       d="m 10.541055,48.042388 86.993997,0 c 0,0 0.353194,-8.366089 0,-7.754339 -0.353194,0.611749 -76.949392,0 -86.50935,0 -1.8056173,4.66109 -0.484647,7.754339 -0.484647,7.754339 z"
       style="fill:#b0b0b0;fill-opacity:1;stroke:none" />
    <path
       sodipodi:nodetypes="zzzzz"
       inkscape:connector-curvature="0"
       id="path3821"
       d="m 102.72331,33.648876 c -4.786371,0.02617 -8.06897,6.608044 -8.310389,11.308989 -0.241419,4.700945 2.27172,11.837017 7.196629,12.251405 4.92491,0.414388 8.77371,-6.888946 8.91011,-11.908708 0.1364,-5.019762 -3.00998,-11.677855 -7.79635,-11.651686 z"
       style="fill:#e6e6e6;fill-opacity:1;stroke:none" />
    <path
       sodipodi:nodetypes="zssszzz"
       inkscape:connector-curvature="0"
       id="path2997"
       d="m 101.27655,56.935262 c -4.797747,0.114074 -77.278995,0 -82.247231,0 -4.968236,0 -8.995787,-5.255635 -8.995787,-11.738 0,-6.482365 4.027551,-11.737 8.995787,-11.737 4.968236,0 76.378555,-0.0284 82.247231,0 5.86869,0.0284 8.89518,4.527215 8.91008,11.651064 0.0149,7.123849 -4.11232,11.709862 -8.91008,11.823936 z"
       style="fill:none;stroke:#000000;stroke-width:1.5;stroke-miterlimit:4;stroke-opacity:1;stroke-dashoffset:0" />
    <path
       sodipodi:nodetypes="czc"
       inkscape:connector-curvature="0"
       id="path3020"
       d="m 102.63641,33.478757 c 0,0 -7.325658,0.501062 -7.536867,11.590129 -0.211209,11.089066 7.365567,11.710784 7.365567,11.710784"
       style="fill:none;stroke:#000000;stroke-width:1.5;stroke-linecap:butt;stroke-linejoin:miter;stroke-miterlimit:4;stroke-opacity:1;stroke-dasharray:none" />
  </g>
  <g
     id="g3768"
     transform="translate(-1.3327771,23.70609)">
    <path
       inkscape:connector-curvature="0"
       id="path2993"
       d="m 49.216858,17.849998 0,-6.980451 4.936176,-4.9361757 6.980451,0 4.961107,4.9611067 0,6.99534 -4.942991,4.942991 -6.952618,0 z"
       style="fill:#df2f2f;fill-opacity:1;stroke:#000000;stroke-width:1;stroke-linecap:butt;stroke-linejoin:miter;stroke-miterlimit:4;stroke-opacity:1;stroke-dasharray:none" />
    <rect
       y="13.292636"
       x="52.385197"
       height="2.180908"
       width="10.541056"
       id="rect3766"
       style="fill:#ffffff;fill-opacity:1;stroke:none" />
  </g>
</svg>
