<?xml version="1.0" encoding="UTF-8" standalone="no"?>
<svg
   xmlns:dc="http://purl.org/dc/elements/1.1/"
   xmlns:cc="http://creativecommons.org/ns#"
   xmlns:rdf="http://www.w3.org/1999/02/22-rdf-syntax-ns#"
   xmlns:svg="http://www.w3.org/2000/svg"
   xmlns="http://www.w3.org/2000/svg"
   xmlns:sodipodi="http://sodipodi.sourceforge.net/DTD/sodipodi-0.dtd"
   xmlns:inkscape="http://www.inkscape.org/namespaces/inkscape"
   version="1.1"
   width="122"
   height="77"
   id="svg3167"
   inkscape:version="0.48.4 r9939"
   sodipodi:docname="Message-Routing__Message-Filter.svg">
  <title
     id="title3397">Message Filter</title>
  <metadata
     id="metadata3309">
    <rdf:RDF>
      <cc:Work
         rdf:about="">
        <dc:format>image/svg+xml</dc:format>
        <dc:type
           rdf:resource="http://purl.org/dc/dcmitype/StillImage" />
        <dc:title>Message Filter</dc:title>
        <dc:description>Enterprise Integration Patterns - Message Routing - Message Filter</dc:description>
        <cc:license
           rdf:resource="" />
        <dc:creator>
          <cc:Agent>
            <dc:title>comSysto GmbH</dc:title>
          </cc:Agent>
        </dc:creator>
        <dc:publisher>
          <cc:Agent>
            <dc:title>comSysto GmbH</dc:title>
          </cc:Agent>
        </dc:publisher>
        <dc:source>http://comsysto.com</dc:source>
        <dc:contributor>
          <cc:Agent>
            <dc:title />
          </cc:Agent>
        </dc:contributor>
        <dc:subject>
          <rdf:Bag>
            <rdf:li>EIP</rdf:li>
            <rdf:li>Enterprise Integration Patterns</rdf:li>
          </rdf:Bag>
        </dc:subject>
        <dc:date>2014-11-05</dc:date>
      </cc:Work>
      <cc:License
         rdf:about="http://creativecommons.org/licenses/by/3.0/">
        <cc:permits
           rdf:resource="http://creativecommons.org/ns#Reproduction" />
        <cc:permits
           rdf:resource="http://creativecommons.org/ns#Distribution" />
        <cc:requires
           rdf:resource="http://creativecommons.org/ns#Notice" />
        <cc:requires
           rdf:resource="http://creativecommons.org/ns#Attribution" />
        <cc:permits
           rdf:resource="http://creativecommons.org/ns#DerivativeWorks" />
      </cc:License>
    </rdf:RDF>
  </metadata>
  <sodipodi:namedview
     pagecolor="#ffffff"
     bordercolor="#666666"
     borderopacity="1"
     objecttolerance="10"
     gridtolerance="10"
     guidetolerance="10"
     inkscape:pageopacity="0"
     inkscape:pageshadow="2"
     inkscape:window-width="1349"
     inkscape:window-height="942"
     id="namedview3307"
     showgrid="false"
     fit-margin-top="0"
     fit-margin-left="0"
     fit-margin-right="0"
     fit-margin-bottom="0"
     inkscape:zoom="3.6619048"
     inkscape:cx="57.071389"
     inkscape:cy="77.955871"
     inkscape:window-x="571"
     inkscape:window-y="24"
     inkscape:window-maximized="0"
     inkscape:current-layer="svg3167" />
  <defs
     id="defs3169">
    <linearGradient
       id="linearGradient3075">
      <stop
         id="stop3083"
         offset="0"
         style="stop-color:#9c9c9c;stop-opacity:1;" />
      <stop
         style="stop-color:#c4c4c4;stop-opacity:1;"
         offset="0.5"
         id="stop3085" />
      <stop
         style="stop-color:#919191;stop-opacity:1;"
         offset="1"
         id="stop3079" />
    </linearGradient>
    <linearGradient
       id="linearGradient3065">
      <stop
         style="stop-color:#000000;stop-opacity:1;"
         offset="0"
         id="stop3067" />
      <stop
         id="stop3073"
         offset="0.5"
         style="stop-color:#000000;stop-opacity:0.49803922;" />
      <stop
         style="stop-color:#000000;stop-opacity:0;"
         offset="1"
         id="stop3069" />
    </linearGradient>
  </defs>
  <g
     id="g3177"
     transform="translate(0.99999999,0.99999999)"
     style="fill:#c0f5a9;fill-opacity:1">
    <g
       id="g3179"
       style="fill:#c0f5a9;fill-opacity:1">
      <g
         id="g3181"
         transform="scale(1.2,0.75)"
         style="fill:#c0f5a9;fill-opacity:1">
        <g
           id="g3183"
           style="fill:#c0f5a9;fill-opacity:1">
          <path
             style="fill:#c0f5a9;stroke:none;fill-opacity:1"
             inkscape:connector-curvature="0"
             id="path3185"
             d="m 0,0 100,0 q 0,0 0,0 l 0,100 q 0,0 0,0 L 0,100 q 0,0 0,0 L 0,0 q 0,0 0,0 z" />
          <g
             id="g3187"
             transform="scale(0.83333333,1.3333333)"
             style="fill:#c0f5a9;fill-opacity:1">
            <path
               style="fill:#c0f5a9;stroke:none;fill-opacity:1"
               inkscape:connector-curvature="0"
               id="path3189"
               d="m 0,0 120,0 q 0,0 0,0 l 0,75 q 0,0 0,0 L 0,75 q 0,0 0,0 L 0,0 q 0,0 0,0 z" />
            <path
               style="fill:#c0f5a9;stroke:#333333;stroke-width:2;stroke-miterlimit:10;fill-opacity:1"
               inkscape:connector-curvature="0"
               id="path3191"
               stroke-miterlimit="10"
               d="m 0,0 m 0,0 120,0 q 0,0 0,0 l 0,75 q 0,0 0,0 L 0,75 q 0,0 0,0 L 0,0 q 0,0 0,0 z" />
          </g>
        </g>
        <g
           id="g3193"
           style="fill:#c0f5a9;fill-opacity:1">
          <g
             id="g3195"
             transform="scale(0.83333333,1.3333333)"
             style="fill:#c0f5a9;fill-opacity:1">
            <path
               style="opacity:0;fill:#c0f5a9;fill-opacity:1;stroke:none"
               inkscape:connector-curvature="0"
               id="path3197"
               d="m 2.4,1.5 0,71.25 114,0 0,-70.5 -112.8,0 z" />
            <path
               style="opacity:0;fill:#c0f5a9;stroke:#3c7626;stroke-width:2;stroke-miterlimit:10;fill-opacity:1"
               inkscape:connector-curvature="0"
               id="path3199"
               stroke-miterlimit="10"
               d="m 2.4,1.5 m 0,0 0,4 m 0,0 m 0,2 0,4 m 0,0 m 0,2 0,4 m 0,0 m 0,2 0,4 m 0,0 m 0,2 0,4 m 0,0 m 0,2 0,4 m 0,0 m 0,2 0,4 m 0,0 m 0,2 0,4 m 0,0 m 0,2 0,4 m 0,0 m 0,2 0,4 m 0,0 m 0,2 0,4 m 0,0 m 0,2 0,4 m 0,0 m 0.75,1.25 4,0 m 0,0 m 2,0 4,0 m 0,0 m 2,0 4,0 m 0,0 m 2,0 4,0 m 0,0 m 2,0 4,0 m 0,0 m 2,0 4,0 m 0,0 m 2,0 4,0 m 0,0 m 2,0 4,0 m 0,0 m 2,0 4,0 m 0,0 m 2,0 4,0 m 0,0 m 2,0 4,0 m 0,0 m 2,0 4,0 m 0,0 m 2,0 4,0 m 0,0 m 2,0 4,0 m 0,0 m 2,0 4,0 m 0,0 m 2,0 4,0 m 0,0 m 2,0 4,0 m 0,0 m 2,0 4,0 m 0,0 m 2,0 4,0 m 0,0 m 1.25,-0.75 0,-4 m 0,0 m 0,-2 0,-4 m 0,0 m 0,-2 0,-4 m 0,0 m 0,-2 0,-4 m 0,0 m 0,-2 0,-4 m 0,0 m 0,-2 0,-4 m 0,0 m 0,-2 0,-4 m 0,0 m 0,-2 0,-4 m 0,0 m 0,-2 0,-4 m 0,0 m 0,-2 0,-4 m 0,0 m 0,-2 0,-4 m 0,0 m 0,-2 0,-3.75 -0.25,0 m 0,0 m -2,0 -4,0 m 0,0 m -2,0 -4,0 m 0,0 m -2,0 -4,0 m 0,0 m -2,0 -4,0 m 0,0 m -2,0 -4,0 m 0,0 m -2,0 -4,0 m 0,0 m -2,0 -4,0 m 0,0 m -2,0 -4,0 m 0,0 m -2,0 -4,0 m 0,0 m -2,0 -4,0 m 0,0 m -2,0 -4,0 m 0,0 m -2,0 -4,0 m 0,0 m -2,0 -4,0 m 0,0 m -2,0 -4,0 m 0,0 m -2,0 -4,0 m 0,0 m -2,0 -4,0 m 0,0 m -2,0 -4,0 m 0,0 m -2,0 -4,0 m 0,0 m -2,0 -2.55,0 z" />
          </g>
        </g>
      </g>
    </g>
  </g>
  <path
     style="fill:#e6e6e6;fill-opacity:1;stroke:#000000;stroke-width:1px;stroke-linecap:butt;stroke-linejoin:miter;stroke-opacity:1"
     d="m 79.29491,19.17962 -11.53114,20.344 0,18.296758 -13.455857,0 0,-18.296758 -11.602823,-20.344 z"
     id="path3055"
     inkscape:connector-curvature="0"
     sodipodi:nodetypes="ccccccc" />
  <path
     style="fill:#b0b0b0;fill-opacity:1;stroke:none"
     d="m 64.253387,57.328133 -0.04828,-18.078808 4.296431,-19.575318 -14.255123,0.0071 4.455396,19.182052 0.02414,18.465004 z"
     id="path3015"
     inkscape:connector-curvature="0"
     sodipodi:nodetypes="ccccccc" />
  <path
     style="fill:#808080;fill-opacity:1;stroke:none"
     d="M 58.758876,57.332275 58.707673,38.862626 54.269094,19.675471 43.53776,19.655726 54.808899,39.399753 54.791832,57.318386 z"
     id="path4293"
     inkscape:connector-curvature="0"
     sodipodi:nodetypes="ccccccc" />
</svg>
