<?xml version="1.0" encoding="UTF-8" standalone="no"?>
<!DOCTYPE svg PUBLIC "-//W3C//DTD SVG 1.1//EN" "http://www.w3.org/Graphics/SVG/1.1/DTD/svg11.dtd">
<svg width="100%" height="100%" viewBox="0 0 122 77" version="1.1" xmlns="http://www.w3.org/2000/svg" xmlns:xlink="http://www.w3.org/1999/xlink" xml:space="preserve" xmlns:serif="http://www.serif.com/" style="fill-rule:evenodd;clip-rule:evenodd;stroke-linejoin:round;stroke-miterlimit:2;">
  <metadata xmlns:rdf="http://www.w3.org/1999/02/22-rdf-syntax-ns#" xmlns:dc11="http://purl.org/dc/elements/1.1/" xmlns:cc="http://creativecommons.org/ns#">
    <rdf:RDF>
      <cc:Work rdf:about="">
        <dc11:format>image/svg+xml</dc11:format>
        <dc11:type rdf:resource="http://purl.org/dc/dcmitype/StillImage"/>
        <cc:license rdf:resource="http://creativecommons.org/licenses/by-sa/4.0/"/>
        <cc:attributionName>codeclou</cc:attributionName>
        <cc:attributionURL rdf:resource="https://codeclou.com"/>
      </cc:Work>
      <cc:License rdf:about="http://creativecommons.org/licenses/by-sa/4.0/">
        <cc:permits rdf:resource="http://creativecommons.org/ns#Reproduction"/>
        <cc:permits rdf:resource="http://creativecommons.org/ns#Distribution"/>
        <cc:permits rdf:resource="http://creativecommons.org/ns#DerivativeWorks"/>
        <cc:requires rdf:resource="http://creativecommons.org/ns#Notice"/>
        <cc:requires rdf:resource="http://creativecommons.org/ns#Attribution"/>
        <cc:requires rdf:resource="http://creativecommons.org/ns#ShareAlike"/>
      </cc:License>
    </rdf:RDF>
  </metadata>
  <g transform="matrix(1,0,0,1,-280,-200)">
    <g id="Content-Enricher" serif:id="Content Enricher" transform="matrix(1,0,0,1,280,200)">
      <rect x="0" y="0" width="122" height="77" style="fill:rgb(156,242,156);"/>
      <g>
        <g>
          <g transform="matrix(0.991758,0,0,0.991758,0.660294,4.99578)">
            <rect x="86.553" y="23.195" width="21.175" height="21.175" style="fill:rgb(251,255,249);"/>
          </g>
          <g transform="matrix(0.991758,0,0,0.991758,0.660294,4.99578)">
            <path d="M108.232,22.691L86.049,22.691L86.049,44.874L108.232,44.874L108.232,22.691ZM107.223,23.7L107.223,43.866L87.057,43.866L87.057,23.7L107.223,23.7Z" style="fill:rgb(16,16,16);fill-rule:nonzero;"/>
          </g>
        </g>
        <g transform="matrix(1,0,0,1,-280,-200)">
          <path d="M338.486,237.5L338.486,232.875L352.56,238.5L338.486,244.125L338.486,239.5L319.64,239.5C319.088,239.5 318.64,239.052 318.64,238.5C318.64,237.948 319.088,237.5 319.64,237.5L338.486,237.5Z" style="fill:rgb(16,16,16);"/>
        </g>
        <g>
          <g transform="matrix(1,0,0,1,2.10962,-0.363131)">
            <rect x="12.134" y="33.106" width="11.514" height="11.514" style="fill:rgb(251,255,249);"/>
          </g>
          <g transform="matrix(1,0,0,1,2.10962,-0.363131)">
            <path d="M24.147,32.606L11.634,32.606L11.634,45.12L24.147,45.12L24.147,32.606ZM23.147,33.606L23.147,44.12L12.634,44.12L12.634,33.606L23.147,33.606Z" style="fill:rgb(16,16,16);fill-rule:nonzero;"/>
          </g>
        </g>
        <g id="frame" transform="matrix(1,0,0,1,1,1)">
          <path d="M-1,-1L-1,76L121,76L121,-1L-1,-1ZM119,1L119,74L1,74L1,1L119,1Z" style="fill:rgb(16,16,16);fill-rule:nonzero;"/>
        </g>
      </g>
    </g>
  </g>
</svg>