<?xml version="1.0" encoding="UTF-8" standalone="no"?>
<!DOCTYPE svg PUBLIC "-//W3C//DTD SVG 1.1//EN" "http://www.w3.org/Graphics/SVG/1.1/DTD/svg11.dtd">
<svg width="100%" height="100%" viewBox="0 0 122 77" version="1.1" xmlns="http://www.w3.org/2000/svg" xmlns:xlink="http://www.w3.org/1999/xlink" xml:space="preserve" xmlns:serif="http://www.serif.com/" style="fill-rule:evenodd;clip-rule:evenodd;stroke-linejoin:round;stroke-miterlimit:2;">
  <metadata xmlns:rdf="http://www.w3.org/1999/02/22-rdf-syntax-ns#" xmlns:dc11="http://purl.org/dc/elements/1.1/" xmlns:cc="http://creativecommons.org/ns#">
    <rdf:RDF>
      <cc:Work rdf:about="">
        <dc11:format>image/svg+xml</dc11:format>
        <dc11:type rdf:resource="http://purl.org/dc/dcmitype/StillImage"/>
        <cc:license rdf:resource="http://creativecommons.org/licenses/by-sa/4.0/"/>
        <cc:attributionName>codeclou</cc:attributionName>
        <cc:attributionURL rdf:resource="https://codeclou.com"/>
      </cc:Work>
      <cc:License rdf:about="http://creativecommons.org/licenses/by-sa/4.0/">
        <cc:permits rdf:resource="http://creativecommons.org/ns#Reproduction"/>
        <cc:permits rdf:resource="http://creativecommons.org/ns#Distribution"/>
        <cc:permits rdf:resource="http://creativecommons.org/ns#DerivativeWorks"/>
        <cc:requires rdf:resource="http://creativecommons.org/ns#Notice"/>
        <cc:requires rdf:resource="http://creativecommons.org/ns#Attribution"/>
        <cc:requires rdf:resource="http://creativecommons.org/ns#ShareAlike"/>
      </cc:License>
    </rdf:RDF>
  </metadata>
  <g transform="matrix(1,0,0,1,0,-400)">
    <g id="Event-Message" serif:id="Event Message" transform="matrix(1,0,0,1,0,400)">
      <rect x="0" y="0" width="122" height="77" style="fill:none;"/>
      <g transform="matrix(0.854058,0,0,0.854058,13.8781,0.591165)">
        <path d="M62.199,13.944C62.199,17.798 59.028,20.969 55.174,20.969C51.32,20.969 48.149,17.798 48.149,13.944C48.149,10.09 51.32,6.919 55.174,6.919C59.028,6.919 62.199,10.09 62.199,13.944Z" style="fill:rgb(204,204,204);fill-rule:nonzero;"/>
      </g>
      <g transform="matrix(1,0,0,1,0,-400)">
        <path d="M60.5,418.981C57.164,418.722 54.5,415.897 54.5,412.5C54.5,408.934 57.434,406 61,406C64.566,406 67.5,408.934 67.5,412.5C67.5,415.897 64.836,418.722 61.5,418.981L61.5,431.5L68.5,431.5C68.776,431.5 69,431.724 69,432C69,432.276 68.776,432.5 68.5,432.5L61,432.5C60.724,432.5 60.5,432.276 60.5,432C60.5,431.967 60.503,431.934 60.51,431.903C60.503,431.871 60.5,431.838 60.5,431.805L60.5,418.981ZM55.5,412.5C55.5,415.517 57.983,418 61,418C64.017,418 66.5,415.517 66.5,412.5C66.5,409.483 64.017,407 61,407C57.983,407 55.5,409.483 55.5,412.5Z" style="fill:rgb(16,16,16);fill-rule:nonzero;"/>
      </g>
      <g transform="matrix(1,0,0,1,0.5,-6.5)">
        <g transform="matrix(1.1291,0,0,1.1291,-4.94917,0.120184)">
          <rect x="64.608" y="28.235" width="11.514" height="11.514" style="fill:rgb(227,233,255);"/>
        </g>
        <g transform="matrix(1.1291,0,0,1.1291,-4.94917,0.120184)">
          <path d="M76.565,27.792L64.166,27.792L64.166,40.191L76.565,40.191L76.565,27.792ZM75.679,28.678L75.679,39.306L65.051,39.306L65.051,28.678L75.679,28.678Z" style="fill-rule:nonzero;"/>
        </g>
        <g transform="matrix(11.1429,0,0,11.1429,70.7114,42.478)">
          <path d="M0.069,-0.714L0.069,-0L0.611,-0L0.611,-0.132L0.226,-0.132L0.226,-0.307L0.572,-0.307L0.572,-0.429L0.226,-0.429L0.226,-0.582L0.603,-0.582L0.603,-0.714L0.069,-0.714Z" style="fill:rgb(99,102,241);fill-rule:nonzero;"/>
        </g>
      </g>
    </g>
  </g>
</svg>