<?xml version="1.0" encoding="UTF-8" standalone="no"?>
<!DOCTYPE svg PUBLIC "-//W3C//DTD SVG 1.1//EN" "http://www.w3.org/Graphics/SVG/1.1/DTD/svg11.dtd">
<svg width="100%" height="100%" viewBox="0 0 122 77" version="1.1" xmlns="http://www.w3.org/2000/svg" xmlns:xlink="http://www.w3.org/1999/xlink" xml:space="preserve" xmlns:serif="http://www.serif.com/" style="fill-rule:evenodd;clip-rule:evenodd;stroke-linejoin:round;stroke-miterlimit:2;">
  <metadata xmlns:rdf="http://www.w3.org/1999/02/22-rdf-syntax-ns#" xmlns:dc11="http://purl.org/dc/elements/1.1/" xmlns:cc="http://creativecommons.org/ns#">
    <rdf:RDF>
      <cc:Work rdf:about="">
        <dc11:format>image/svg+xml</dc11:format>
        <dc11:type rdf:resource="http://purl.org/dc/dcmitype/StillImage"/>
        <cc:license rdf:resource="http://creativecommons.org/licenses/by-sa/4.0/"/>
        <cc:attributionName>codeclou</cc:attributionName>
        <cc:attributionURL rdf:resource="https://codeclou.com"/>
      </cc:Work>
      <cc:License rdf:about="http://creativecommons.org/licenses/by-sa/4.0/">
        <cc:permits rdf:resource="http://creativecommons.org/ns#Reproduction"/>
        <cc:permits rdf:resource="http://creativecommons.org/ns#Distribution"/>
        <cc:permits rdf:resource="http://creativecommons.org/ns#DerivativeWorks"/>
        <cc:requires rdf:resource="http://creativecommons.org/ns#Notice"/>
        <cc:requires rdf:resource="http://creativecommons.org/ns#Attribution"/>
        <cc:requires rdf:resource="http://creativecommons.org/ns#ShareAlike"/>
      </cc:License>
    </rdf:RDF>
  </metadata>
  <g transform="matrix(1,0,0,1,-140,-300)">
    <g id="Content-Based-Router" serif:id="Content Based Router" transform="matrix(1,0,0,1,140,300)">
      <rect x="0" y="0" width="122" height="77" style="fill:rgb(156,242,156);"/>
      <g>
        <g transform="matrix(1,0,0,1,-140,-300)">
          <path d="M225.374,355.5C224.93,357.225 223.364,358.5 221.5,358.5C219.291,358.5 217.5,356.709 217.5,354.5C217.5,352.291 219.291,350.5 221.5,350.5C223.364,350.5 224.93,351.775 225.374,353.5L251.542,353.5C252.094,353.5 252.542,353.948 252.542,354.5C252.542,355.052 252.094,355.5 251.542,355.5L225.374,355.5Z" style="fill:rgb(16,16,16);"/>
        </g>
        <g transform="matrix(1,0,0,1,-140,-300)">
          <path d="M225.374,339.5C224.93,341.225 223.364,342.5 221.5,342.5C219.291,342.5 217.5,340.709 217.5,338.5C217.5,336.291 219.291,334.5 221.5,334.5C223.364,334.5 224.93,335.775 225.374,337.5L251.495,337.5C252.047,337.5 252.495,337.948 252.495,338.5C252.495,339.052 252.047,339.5 251.495,339.5L225.374,339.5Z" style="fill:rgb(16,16,16);"/>
        </g>
        <g transform="matrix(1,0,0,1,-140,-300)">
          <path d="M217.528,322.977C217.51,322.82 217.5,322.661 217.5,322.5C217.5,320.291 219.291,318.5 221.5,318.5C223.364,318.5 224.93,319.775 225.374,321.5L251.459,321.5C252.011,321.5 252.459,321.948 252.459,322.5C252.459,323.052 252.011,323.5 251.459,323.5L225.374,323.5C224.93,325.225 223.364,326.5 221.5,326.5C220.164,326.5 218.982,325.845 218.255,324.84L184.472,338.023C184.49,338.18 184.5,338.339 184.5,338.5C184.5,340.709 182.709,342.5 180.5,342.5C178.636,342.5 177.07,341.225 176.626,339.5L150.493,339.5C149.941,339.5 149.493,339.052 149.493,338.5C149.493,337.948 149.941,337.5 150.493,337.5L176.626,337.5C177.07,335.775 178.636,334.5 180.5,334.5C181.836,334.5 183.018,335.155 183.745,336.16L217.528,322.977Z" style="fill:rgb(16,16,16);"/>
        </g>
        <g id="frame" transform="matrix(1,0,0,1,1,1)">
          <path d="M-1,-1L-1,76L121,76L121,-1L-1,-1ZM119,1L119,74L1,74L1,1L119,1Z" style="fill:rgb(16,16,16);fill-rule:nonzero;"/>
        </g>
      </g>
    </g>
  </g>
</svg>