<?xml version="1.0" encoding="UTF-8" standalone="no"?>
<!DOCTYPE svg PUBLIC "-//W3C//DTD SVG 1.1//EN" "http://www.w3.org/Graphics/SVG/1.1/DTD/svg11.dtd">
<svg width="100%" height="100%" viewBox="0 0 122 77" version="1.1" xmlns="http://www.w3.org/2000/svg" xmlns:xlink="http://www.w3.org/1999/xlink" xml:space="preserve" xmlns:serif="http://www.serif.com/" style="fill-rule:evenodd;clip-rule:evenodd;stroke-linejoin:round;stroke-miterlimit:2;">
  <metadata xmlns:rdf="http://www.w3.org/1999/02/22-rdf-syntax-ns#" xmlns:dc11="http://purl.org/dc/elements/1.1/" xmlns:cc="http://creativecommons.org/ns#">
    <rdf:RDF>
      <cc:Work rdf:about="">
        <dc11:format>image/svg+xml</dc11:format>
        <dc11:type rdf:resource="http://purl.org/dc/dcmitype/StillImage"/>
        <cc:license rdf:resource="http://creativecommons.org/licenses/by-sa/4.0/"/>
        <cc:attributionName>codeclou</cc:attributionName>
        <cc:attributionURL rdf:resource="https://codeclou.com"/>
      </cc:Work>
      <cc:License rdf:about="http://creativecommons.org/licenses/by-sa/4.0/">
        <cc:permits rdf:resource="http://creativecommons.org/ns#Reproduction"/>
        <cc:permits rdf:resource="http://creativecommons.org/ns#Distribution"/>
        <cc:permits rdf:resource="http://creativecommons.org/ns#DerivativeWorks"/>
        <cc:requires rdf:resource="http://creativecommons.org/ns#Notice"/>
        <cc:requires rdf:resource="http://creativecommons.org/ns#Attribution"/>
        <cc:requires rdf:resource="http://creativecommons.org/ns#ShareAlike"/>
      </cc:License>
    </rdf:RDF>
  </metadata>
  <g transform="matrix(1,0,0,1,-560,-200)">
    <g id="Durable-Subscriber" serif:id="Durable Subscriber" transform="matrix(1,0,0,1,560,200)">
      <rect x="0" y="0" width="122" height="77" style="fill:none;"/>
      <g transform="matrix(1,0,0,1,-560,-200)">
        <path d="M627.426,221.5L627.426,216.875L641.5,222.5L627.426,228.125L627.426,223.5L601.5,223.5L601.5,253.5L627.348,253.5L627.348,248.875L641.422,254.5L627.348,260.125L627.348,255.5L600.5,255.5C599.948,255.5 599.5,255.052 599.5,254.5C599.5,254.412 599.511,254.326 599.533,254.245C599.511,254.163 599.5,254.077 599.5,253.989L599.5,239.5L580,239.5C579.448,239.5 579,239.052 579,238.5C579,237.948 579.448,237.5 580,237.5L599.5,237.5L599.5,223.011C599.5,222.927 599.511,222.843 599.532,222.761L599.533,222.755C599.511,222.674 599.5,222.588 599.5,222.5C599.5,221.948 599.948,221.5 600.5,221.5L627.426,221.5Z" style="fill:rgb(153,153,153);"/>
      </g>
      <g transform="matrix(1,0,0,1,9.85196,2.84217e-14)">
        <g transform="matrix(0.927542,0,0,0.954198,-523.509,-575.523)">
          <path d="M656.793,623.899L655.279,623.899L655.279,620.575L655.28,620.554C655.28,620.554 655.371,618.678 656.903,617.192C657.877,616.246 659.446,615.431 662.005,615.447C664.558,615.463 666.124,616.281 667.096,617.221C668.63,618.704 668.72,620.553 668.72,620.553L668.721,620.574L668.721,623.899L667.205,623.899L667.205,623.188L667.221,620.626C667.21,620.495 667.075,619.287 666.054,618.3C665.282,617.554 664.022,616.959 661.995,616.947C659.974,616.934 658.717,617.521 657.947,618.268C656.923,619.262 656.79,620.493 656.779,620.625L656.793,622.832L656.793,622.832L656.793,623.899Z" style="fill:rgb(230,230,230);"/>
        </g>
        <g transform="matrix(0.774514,0,0,0.617459,-415.92,-66.3545)">
          <path d="M665.537,142.399C665.537,141.235 664.784,140.289 663.855,140.289L643.918,140.289C642.989,140.289 642.235,141.235 642.235,142.399L642.235,159.227C642.235,160.392 642.989,161.338 643.918,161.338L663.855,161.338C664.784,161.338 665.537,160.392 665.537,159.227L665.537,142.399Z" style="fill:rgb(230,230,230);"/>
        </g>
        <g transform="matrix(1,0,0,1,-569.852,-200)">
          <path d="M653.142,219.768L653.142,216.601C653.142,216.601 653.144,216.554 653.144,216.561C653.144,216.561 653.231,214.4 654.941,212.693C655.983,211.652 657.649,210.718 660.387,210.735C663.112,210.753 664.771,211.687 665.808,212.719C667.523,214.425 667.608,216.56 667.608,216.553L667.61,216.6L667.61,219.768L668.097,219.768C669.092,219.768 669.9,220.576 669.9,221.571L669.9,231.962C669.9,232.957 669.092,233.765 668.097,233.765L652.655,233.765C651.66,233.765 650.852,232.957 650.852,231.962C650.852,231.962 650.852,221.571 650.852,221.571C650.852,220.576 651.66,219.768 652.655,219.768L653.142,219.768ZM651.852,221.571L651.852,231.962C651.852,232.405 652.212,232.765 652.655,232.765C652.655,232.765 668.097,232.765 668.097,232.765C668.54,232.765 668.9,232.405 668.9,231.962L668.9,221.571C668.9,221.128 668.54,220.768 668.097,220.768C668.097,220.768 652.655,220.768 652.655,220.768C652.212,220.768 651.852,221.128 651.852,221.571ZM656.546,219.768L656.552,219.768L656.546,219.257L656.546,219.768ZM664.203,219.768L664.203,219.119L664.219,216.73C664.196,216.548 664.063,215.795 663.431,215.166C662.851,214.59 661.888,214.176 660.365,214.166C658.855,214.157 657.899,214.56 657.324,215.135C656.686,215.772 656.555,216.545 656.533,216.728L656.552,219.768L664.203,219.768ZM665.206,219.743L666.61,219.743L666.61,216.628L666.609,216.608C666.609,216.608 666.525,214.819 665.104,213.4C664.201,212.498 662.745,211.72 660.372,211.735C658.003,211.75 656.551,212.531 655.649,213.428C654.226,214.843 654.143,216.608 654.143,216.608L654.142,216.628L654.142,219.743L655.548,219.743L655.548,219.122L655.533,216.677C655.544,216.552 655.669,215.4 656.616,214.457C657.331,213.746 658.501,213.178 660.38,213.166C662.255,213.154 663.421,213.714 664.135,214.427C665.085,215.376 665.209,216.55 665.219,216.677L665.206,218.782L665.206,219.743Z" style="fill:rgb(16,16,16);fill-rule:nonzero;"/>
        </g>
        <g transform="matrix(1,0,0,1,-560,-200)">
          <path d="M649.633,227.711C648.815,227.364 648.241,226.553 648.241,225.609C648.241,224.348 649.264,223.325 650.524,223.325C651.784,223.325 652.807,224.348 652.807,225.609C652.807,226.553 652.233,227.364 651.415,227.711L651.415,229.728C651.415,230.22 651.016,230.619 650.524,230.619C650.032,230.619 649.633,230.22 649.633,229.728L649.633,227.711Z" style="fill:rgb(16,16,16);"/>
        </g>
      </g>
    </g>
  </g>
</svg>