<?xml version="1.0" encoding="UTF-8" standalone="no"?>
<!DOCTYPE svg PUBLIC "-//W3C//DTD SVG 1.1//EN" "http://www.w3.org/Graphics/SVG/1.1/DTD/svg11.dtd">
<svg width="100%" height="100%" viewBox="0 0 122 77" version="1.1" xmlns="http://www.w3.org/2000/svg" xmlns:xlink="http://www.w3.org/1999/xlink" xml:space="preserve" xmlns:serif="http://www.serif.com/" style="fill-rule:evenodd;clip-rule:evenodd;stroke-linejoin:round;stroke-miterlimit:2;">
  <metadata xmlns:rdf="http://www.w3.org/1999/02/22-rdf-syntax-ns#" xmlns:dc11="http://purl.org/dc/elements/1.1/" xmlns:cc="http://creativecommons.org/ns#">
    <rdf:RDF>
      <cc:Work rdf:about="">
        <dc11:format>image/svg+xml</dc11:format>
        <dc11:type rdf:resource="http://purl.org/dc/dcmitype/StillImage"/>
        <cc:license rdf:resource="http://creativecommons.org/licenses/by-sa/4.0/"/>
        <cc:attributionName>codeclou</cc:attributionName>
        <cc:attributionURL rdf:resource="https://codeclou.com"/>
      </cc:Work>
      <cc:License rdf:about="http://creativecommons.org/licenses/by-sa/4.0/">
        <cc:permits rdf:resource="http://creativecommons.org/ns#Reproduction"/>
        <cc:permits rdf:resource="http://creativecommons.org/ns#Distribution"/>
        <cc:permits rdf:resource="http://creativecommons.org/ns#DerivativeWorks"/>
        <cc:requires rdf:resource="http://creativecommons.org/ns#Notice"/>
        <cc:requires rdf:resource="http://creativecommons.org/ns#Attribution"/>
        <cc:requires rdf:resource="http://creativecommons.org/ns#ShareAlike"/>
      </cc:License>
    </rdf:RDF>
  </metadata>
  <g transform="matrix(1,0,0,1,-560,-700)">
    <g id="Selective-Consumer" serif:id="Selective Consumer" transform="matrix(1,0,0,1,560,700)">
      <rect x="0" y="0" width="122" height="77" style="fill:rgb(156,242,156);"/>
      <g>
        <g transform="matrix(1,0,0,1,-560,-700)">
          <path d="M643.762,737.5L643.762,734.438L653.926,738.5L643.762,742.563L643.762,739.5L621,739.5C620.448,739.5 620,739.052 620,738.5C620,737.948 620.448,737.5 621,737.5L643.762,737.5Z" style="fill:rgb(16,16,16);"/>
        </g>
        <g transform="matrix(0.729874,0.729874,-0.729874,0.729874,-3.70701,-1.23963)">
          <rect x="94.552" y="-50.277" width="10.172" height="10.172" style="fill:rgb(16,16,16);"/>
        </g>
        <g>
          <g transform="matrix(1.02894,0,0,1.02894,8.75243,1.47079)">
            <path d="M67.882,35.988C67.882,42.388 62.615,47.655 56.215,47.655C49.815,47.655 44.548,42.388 44.548,35.988C44.548,29.587 49.815,24.321 56.215,24.321C62.615,24.321 67.882,29.587 67.882,35.988L67.882,35.988Z" style="fill:rgb(227,233,255);fill-rule:nonzero;"/>
          </g>
          <g transform="matrix(1.02894,0,0,1.02894,8.75243,1.47079)">
            <path d="M67.882,35.988C67.882,35.988 68.368,35.988 68.368,35.988C68.368,29.321 62.882,23.835 56.215,23.835C49.548,23.835 44.062,29.321 44.062,35.988L44.548,35.988C44.548,35.988 44.062,35.988 44.062,35.988C44.062,42.655 49.548,48.141 56.215,48.141C62.882,48.141 68.368,42.655 68.368,35.988L67.882,35.988ZM67.396,35.988C67.396,42.122 62.349,47.169 56.215,47.169C50.081,47.169 45.034,42.122 45.034,35.988L44.548,35.988C44.548,35.988 45.034,35.988 45.034,35.988C45.034,29.854 50.081,24.806 56.215,24.806C62.349,24.806 67.396,29.854 67.396,35.988L67.882,35.988C67.882,35.988 67.396,35.988 67.396,35.988Z" style="fill:rgb(16,16,16);fill-rule:nonzero;"/>
          </g>
          <g transform="matrix(20.5798,0,0,20.5798,60.904,46.0219)">
            <path d="M0.193,-0.154L0.193,-0L0.35,-0L0.35,-0.154L0.193,-0.154ZM0.032,-0.484L0.179,-0.484C0.179,-0.502 0.181,-0.519 0.185,-0.535C0.189,-0.55 0.195,-0.564 0.204,-0.576C0.212,-0.587 0.223,-0.596 0.236,-0.604C0.249,-0.611 0.264,-0.614 0.282,-0.614C0.309,-0.614 0.33,-0.607 0.345,-0.592C0.36,-0.577 0.367,-0.555 0.367,-0.524C0.368,-0.506 0.365,-0.491 0.358,-0.479C0.351,-0.467 0.341,-0.456 0.33,-0.446C0.319,-0.436 0.306,-0.426 0.293,-0.416C0.28,-0.406 0.267,-0.394 0.255,-0.381C0.243,-0.367 0.233,-0.35 0.224,-0.331C0.215,-0.312 0.209,-0.288 0.207,-0.259L0.207,-0.214L0.342,-0.214L0.342,-0.252C0.345,-0.272 0.351,-0.289 0.362,-0.302C0.372,-0.315 0.384,-0.327 0.397,-0.338C0.41,-0.348 0.424,-0.358 0.44,-0.369C0.455,-0.379 0.468,-0.391 0.481,-0.406C0.493,-0.421 0.503,-0.438 0.512,-0.459C0.52,-0.48 0.524,-0.506 0.524,-0.538C0.524,-0.557 0.52,-0.578 0.512,-0.601C0.503,-0.623 0.489,-0.644 0.47,-0.663C0.451,-0.682 0.425,-0.699 0.394,-0.712C0.362,-0.724 0.322,-0.731 0.275,-0.731C0.238,-0.731 0.205,-0.725 0.176,-0.713C0.146,-0.7 0.121,-0.683 0.1,-0.661C0.079,-0.639 0.062,-0.613 0.051,-0.583C0.039,-0.553 0.033,-0.52 0.032,-0.484Z" style="fill:rgb(16,16,16);fill-rule:nonzero;"/>
          </g>
        </g>
        <g transform="matrix(1,0,0,1,-560,-700)">
          <path d="M592.989,737L592.989,730.261L613.604,738.5L592.989,746.739L592.989,740L568.5,740C567.672,740 567,739.328 567,738.5C567,737.672 567.672,737 568.5,737L592.989,737Z" style="fill:rgb(153,153,153);"/>
        </g>
        <g id="frame" transform="matrix(1,0,0,1,1,1)">
          <path d="M-1,-1L-1,76L121,76L121,-1L-1,-1ZM119,1L119,74L1,74L1,1L119,1Z" style="fill:rgb(16,16,16);fill-rule:nonzero;"/>
        </g>
      </g>
    </g>
  </g>
</svg>