<?xml version="1.0" encoding="UTF-8" standalone="no"?>
<!DOCTYPE svg PUBLIC "-//W3C//DTD SVG 1.1//EN" "http://www.w3.org/Graphics/SVG/1.1/DTD/svg11.dtd">
<svg width="100%" height="100%" viewBox="0 0 122 77" version="1.1" xmlns="http://www.w3.org/2000/svg" xmlns:xlink="http://www.w3.org/1999/xlink" xml:space="preserve" xmlns:serif="http://www.serif.com/" style="fill-rule:evenodd;clip-rule:evenodd;stroke-linejoin:round;stroke-miterlimit:2;">
  <metadata xmlns:rdf="http://www.w3.org/1999/02/22-rdf-syntax-ns#" xmlns:dc11="http://purl.org/dc/elements/1.1/" xmlns:cc="http://creativecommons.org/ns#">
    <rdf:RDF>
      <cc:Work rdf:about="">
        <dc11:format>image/svg+xml</dc11:format>
        <dc11:type rdf:resource="http://purl.org/dc/dcmitype/StillImage"/>
        <cc:license rdf:resource="http://creativecommons.org/licenses/by-sa/4.0/"/>
        <cc:attributionName>codeclou</cc:attributionName>
        <cc:attributionURL rdf:resource="https://codeclou.com"/>
      </cc:Work>
      <cc:License rdf:about="http://creativecommons.org/licenses/by-sa/4.0/">
        <cc:permits rdf:resource="http://creativecommons.org/ns#Reproduction"/>
        <cc:permits rdf:resource="http://creativecommons.org/ns#Distribution"/>
        <cc:permits rdf:resource="http://creativecommons.org/ns#DerivativeWorks"/>
        <cc:requires rdf:resource="http://creativecommons.org/ns#Notice"/>
        <cc:requires rdf:resource="http://creativecommons.org/ns#Attribution"/>
        <cc:requires rdf:resource="http://creativecommons.org/ns#ShareAlike"/>
      </cc:License>
    </rdf:RDF>
  </metadata>
  <g transform="matrix(1,0,0,1,-560,-500)">
    <g id="Messaging-Gateway" serif:id="Messaging Gateway" transform="matrix(1,0,0,1,560,500)">
      <rect x="0" y="0" width="122" height="77" style="fill:rgb(156,242,156);"/>
      <g>
        <g>
          <g transform="matrix(0.807741,0,0,1.11543,13.323,-4.44387)">
            <path d="M84.404,67.189L59.025,51.717L59.025,25.007L84.405,9.811L84.404,67.189Z" style="fill:rgb(227,233,255);fill-rule:nonzero;"/>
          </g>
          <g transform="matrix(0.807741,0,0,1.11543,13.323,-4.44387)">
            <path d="M85.023,68.152L85.024,8.859L58.406,24.796L58.406,51.926L85.023,68.152ZM59.644,51.771L59.644,25.48L83.785,10.764L83.786,66.225L59.644,51.771Z" style="fill:rgb(16,16,16);fill-rule:nonzero;"/>
          </g>
        </g>
        <g>
          <g transform="matrix(1.19931,0,0,1.08428,-21.7044,-3.24465)">
            <rect x="90.222" y="8.987" width="19.092" height="59.026" style="fill:rgb(227,233,255);"/>
          </g>
          <g transform="matrix(1.19931,0,0,1.08428,-21.7044,-3.24465)">
            <path d="M109.731,8.526L89.805,8.526L89.805,68.474L109.731,68.474L109.731,8.526ZM108.897,9.448L108.897,67.552L90.639,67.552L90.639,9.448L108.897,9.448Z" style="fill:rgb(16,16,16);fill-rule:nonzero;"/>
          </g>
        </g>
        <g transform="matrix(1,0,0,1,-560,-500)">
          <path d="M592.989,537L592.989,530.261L613.604,538.5L592.989,546.739L592.989,540L567.871,540C567.043,540 566.371,539.328 566.371,538.5C566.371,537.672 567.043,537 567.871,537L592.989,537Z" style="fill:rgb(153,153,153);"/>
        </g>
        <g id="frame" transform="matrix(1,0,0,1,1,1)">
          <path d="M-1,-1L-1,76L121,76L121,-1L-1,-1ZM119,1L119,74L1,74L1,1L119,1Z" style="fill:rgb(16,16,16);fill-rule:nonzero;"/>
        </g>
      </g>
    </g>
  </g>
</svg>