<?xml version="1.0" encoding="UTF-8" standalone="no"?>
<!DOCTYPE svg PUBLIC "-//W3C//DTD SVG 1.1//EN" "http://www.w3.org/Graphics/SVG/1.1/DTD/svg11.dtd">
<svg width="100%" height="100%" viewBox="0 0 122 77" version="1.1" xmlns="http://www.w3.org/2000/svg" xmlns:xlink="http://www.w3.org/1999/xlink" xml:space="preserve" xmlns:serif="http://www.serif.com/" style="fill-rule:evenodd;clip-rule:evenodd;stroke-linejoin:round;stroke-miterlimit:2;">
  <metadata xmlns:rdf="http://www.w3.org/1999/02/22-rdf-syntax-ns#" xmlns:dc11="http://purl.org/dc/elements/1.1/" xmlns:cc="http://creativecommons.org/ns#">
    <rdf:RDF>
      <cc:Work rdf:about="">
        <dc11:format>image/svg+xml</dc11:format>
        <dc11:type rdf:resource="http://purl.org/dc/dcmitype/StillImage"/>
        <cc:license rdf:resource="http://creativecommons.org/licenses/by-sa/4.0/"/>
        <cc:attributionName>codeclou</cc:attributionName>
        <cc:attributionURL rdf:resource="https://codeclou.com"/>
      </cc:Work>
      <cc:License rdf:about="http://creativecommons.org/licenses/by-sa/4.0/">
        <cc:permits rdf:resource="http://creativecommons.org/ns#Reproduction"/>
        <cc:permits rdf:resource="http://creativecommons.org/ns#Distribution"/>
        <cc:permits rdf:resource="http://creativecommons.org/ns#DerivativeWorks"/>
        <cc:requires rdf:resource="http://creativecommons.org/ns#Notice"/>
        <cc:requires rdf:resource="http://creativecommons.org/ns#Attribution"/>
        <cc:requires rdf:resource="http://creativecommons.org/ns#ShareAlike"/>
      </cc:License>
    </rdf:RDF>
  </metadata>
  <g transform="matrix(1,0,0,1,-840,-200)">
    <g id="Control-Bus" serif:id="Control Bus" transform="matrix(1,0,0,1,840,200)">
      <rect x="0" y="0" width="122" height="77" style="fill:none;"/>
      <g>
        <g transform="matrix(1,0,0,1,-1126.86,-599.173)">
          <path d="M1213.36,621.828C1213.36,620.635 1212.39,619.667 1211.2,619.667L1164.52,619.667C1163.33,619.667 1162.36,620.635 1162.36,621.828L1162.36,653.517C1162.36,654.71 1163.33,655.678 1164.52,655.678L1211.2,655.678C1212.39,655.678 1213.36,654.71 1213.36,653.517L1213.36,621.828Z" style="fill:rgb(230,230,230);"/>
        </g>
        <g transform="matrix(1,0,0,1,-1126.86,-599.173)">
          <path d="M1213.86,621.828C1213.86,620.36 1212.67,619.167 1211.2,619.167C1211.2,619.167 1164.52,619.167 1164.52,619.167C1163.05,619.167 1161.86,620.36 1161.86,621.828L1161.86,653.517C1161.86,654.986 1163.05,656.178 1164.52,656.178C1164.52,656.178 1211.2,656.178 1211.2,656.178C1212.67,656.178 1213.86,654.986 1213.86,653.517L1213.86,621.828ZM1212.86,621.828L1212.86,653.517C1212.86,654.434 1212.12,655.178 1211.2,655.178L1164.52,655.178C1163.61,655.178 1162.86,654.434 1162.86,653.517C1162.86,653.517 1162.86,621.828 1162.86,621.828C1162.86,620.911 1163.61,620.167 1164.52,620.167L1211.2,620.167C1212.12,620.167 1212.86,620.911 1212.86,621.828Z" style="fill:rgb(16,16,16);fill-rule:nonzero;"/>
        </g>
      </g>
      <g transform="matrix(1.40842,0,0,1.40842,12.0769,-30.7703)">
        <path d="M51.066,52.286C51.066,53.26 50.265,54.061 49.291,54.061C48.318,54.061 47.516,53.26 47.516,52.286C47.516,51.312 48.318,50.511 49.291,50.511C50.265,50.511 51.066,51.312 51.066,52.286Z" style="fill:rgb(16,16,16);fill-rule:nonzero;"/>
      </g>
      <g transform="matrix(1.40842,0,0,1.40842,12.0769,-23.9734)">
        <path d="M51.066,52.286C51.066,53.26 50.265,54.061 49.291,54.061C48.318,54.061 47.516,53.26 47.516,52.286C47.516,51.312 48.318,50.511 49.291,50.511C50.265,50.511 51.066,51.312 51.066,52.286Z" style="fill:rgb(16,16,16);fill-rule:nonzero;"/>
      </g>
      <g>
        <g transform="matrix(0.687043,0,0,0.749128,-758.092,-439.198)">
          <path d="M1213.36,621.828C1213.36,620.635 1212.31,619.667 1211.01,619.667L1164.72,619.667C1163.42,619.667 1162.36,620.635 1162.36,621.828L1162.36,653.517C1162.36,654.71 1163.42,655.678 1164.72,655.678L1211.01,655.678C1212.31,655.678 1213.36,654.71 1213.36,653.517L1213.36,621.828Z" style="fill:rgb(16,16,16);"/>
        </g>
        <g transform="matrix(0.887747,0,0,0.887747,-994.005,-529.39)">
          <path d="M1177.56,635.911C1176.67,638.593 1175.73,641.551 1175.11,642.68C1174.21,644.3 1173.18,645.036 1172.3,645.377C1170.76,645.971 1169.54,645.405 1169.54,645.405C1168.97,645.158 1168.71,644.494 1168.95,643.924C1169.2,643.353 1169.87,643.091 1170.44,643.338C1170.44,643.338 1170.9,643.502 1171.48,643.276C1172.02,643.07 1172.59,642.572 1173.13,641.591C1174.11,639.829 1175.84,633.453 1176.93,631.042C1177.28,630.264 1177.67,629.799 1177.92,629.643C1178.23,629.445 1178.53,629.41 1178.8,629.454C1179.14,629.507 1179.46,629.679 1179.69,630.067C1179.82,630.269 1179.94,630.656 1179.96,631.231C1180.03,632.977 1179.42,637.764 1180.14,643.353C1180.35,644.983 1181.16,646.25 1181.97,647.02C1182.15,647.192 1182.32,647.344 1182.48,647.461C1182.67,647.05 1182.94,646.472 1183.16,646.047C1183.5,645.393 1183.91,644.789 1184.4,644.39C1185.87,643.175 1187.21,642.919 1188.37,642.812C1188.75,642.777 1189.11,642.761 1189.44,642.72C1189.73,642.684 1189.99,642.648 1190.21,642.464C1190.7,642.051 1190.93,641.422 1191.13,640.782C1191.39,639.917 1191.56,639.012 1191.81,638.292C1192.28,636.928 1193.79,633.369 1194.48,632.625C1194.89,632.179 1195.33,632.115 1195.61,632.141C1196.01,632.177 1196.57,632.373 1196.73,633.224C1196.8,633.606 1196.78,634.726 1196.67,636.178C1196.44,639.195 1195.94,643.828 1195.97,645.515C1195.97,645.698 1196.01,645.94 1196.06,646.199C1197.53,644.515 1199.11,644.657 1199.11,644.657C1199.73,644.678 1200.22,645.199 1200.2,645.82C1200.18,646.431 1199.67,646.913 1199.07,646.91C1199.06,646.913 1197.76,647.19 1196.94,649.021C1196.72,649.52 1196.37,649.696 1196.09,649.769C1195.75,649.86 1195.33,649.828 1194.93,649.464C1194.75,649.298 1194.5,648.932 1194.3,648.416C1194,647.621 1193.73,646.378 1193.72,645.551C1193.7,644.214 1193.99,641.064 1194.24,638.279C1194.11,638.58 1194,638.84 1193.94,639.031C1193.64,639.889 1193.46,641.009 1193.09,642.008C1192.78,642.854 1192.33,643.618 1191.67,644.181C1190.97,644.775 1190.13,644.935 1189.13,645.011C1188.21,645.082 1187.08,645.098 1185.83,646.128C1185.47,646.425 1185.22,646.942 1184.99,647.433C1184.66,648.128 1184.39,648.807 1184.16,649.176C1183.74,649.839 1183.18,649.99 1182.79,649.953C1182.32,649.908 1181.67,649.656 1180.99,649.139C1179.72,648.176 1178.25,646.253 1177.91,643.642C1177.54,640.76 1177.51,638.086 1177.56,635.911Z" style="fill:rgb(16,229,118);"/>
        </g>
      </g>
    </g>
  </g>
</svg>