<?xml version="1.0" encoding="UTF-8" standalone="no"?>
<!DOCTYPE svg PUBLIC "-//W3C//DTD SVG 1.1//EN" "http://www.w3.org/Graphics/SVG/1.1/DTD/svg11.dtd">
<svg width="100%" height="100%" viewBox="0 0 122 77" version="1.1" xmlns="http://www.w3.org/2000/svg" xmlns:xlink="http://www.w3.org/1999/xlink" xml:space="preserve" xmlns:serif="http://www.serif.com/" style="fill-rule:evenodd;clip-rule:evenodd;stroke-linejoin:round;stroke-miterlimit:2;">
  <metadata xmlns:rdf="http://www.w3.org/1999/02/22-rdf-syntax-ns#" xmlns:dc11="http://purl.org/dc/elements/1.1/" xmlns:cc="http://creativecommons.org/ns#">
    <rdf:RDF>
      <cc:Work rdf:about="">
        <dc11:format>image/svg+xml</dc11:format>
        <dc11:type rdf:resource="http://purl.org/dc/dcmitype/StillImage"/>
        <cc:license rdf:resource="http://creativecommons.org/licenses/by-sa/4.0/"/>
        <cc:attributionName>codeclou</cc:attributionName>
        <cc:attributionURL rdf:resource="https://codeclou.com"/>
      </cc:Work>
      <cc:License rdf:about="http://creativecommons.org/licenses/by-sa/4.0/">
        <cc:permits rdf:resource="http://creativecommons.org/ns#Reproduction"/>
        <cc:permits rdf:resource="http://creativecommons.org/ns#Distribution"/>
        <cc:permits rdf:resource="http://creativecommons.org/ns#DerivativeWorks"/>
        <cc:requires rdf:resource="http://creativecommons.org/ns#Notice"/>
        <cc:requires rdf:resource="http://creativecommons.org/ns#Attribution"/>
        <cc:requires rdf:resource="http://creativecommons.org/ns#ShareAlike"/>
      </cc:License>
    </rdf:RDF>
  </metadata>
  <g transform="matrix(1,0,0,1,-140,-1100)">
    <g id="Splitter" transform="matrix(1,0,0,1,140,1100)">
      <rect x="0" y="0" width="122" height="77" style="fill:rgb(156,242,156);"/>
      <g>
        <g>
          <g transform="matrix(1,0,0,1,-0.390383,-0.390269)">
            <rect x="96.634" y="49.133" width="11.514" height="11.514" style="fill:rgb(251,255,249);"/>
          </g>
          <g transform="matrix(1,0,0,1,-0.390383,-0.390269)">
            <path d="M108.647,48.633L96.134,48.633L96.134,61.147L108.647,61.147L108.647,48.633ZM107.647,49.633L107.647,60.147L97.134,60.147L97.134,49.633L107.647,49.633Z" style="fill:rgb(16,16,16);fill-rule:nonzero;"/>
          </g>
        </g>
        <g>
          <g transform="matrix(1,0,0,1,-0.390383,-0.363131)">
            <rect x="96.634" y="33.106" width="11.514" height="11.514" style="fill:rgb(251,255,249);"/>
          </g>
          <g transform="matrix(1,0,0,1,-0.390383,-0.363131)">
            <path d="M108.647,32.606L96.134,32.606L96.134,45.12L108.647,45.12L108.647,32.606ZM107.647,33.606L107.647,44.12L97.134,44.12L97.134,33.606L107.647,33.606Z" style="fill:rgb(16,16,16);fill-rule:nonzero;"/>
          </g>
        </g>
        <g>
          <g transform="matrix(1,0,0,1,-0.390383,-0.770335)">
            <rect x="96.634" y="17.514" width="11.514" height="11.514" style="fill:rgb(251,255,249);"/>
          </g>
          <g transform="matrix(1,0,0,1,-0.390383,-0.770335)">
            <path d="M108.647,17.014L96.134,17.014L96.134,29.527L108.647,29.527L108.647,17.014ZM107.647,18.014L107.647,28.527L97.134,28.527L97.134,18.014L107.647,18.014Z" style="fill:rgb(16,16,16);fill-rule:nonzero;"/>
          </g>
        </g>
        <g>
          <g transform="matrix(1,0,0,1,2.04188,-0.363131)">
            <rect x="12.201" y="33.106" width="11.514" height="11.514" style="fill:rgb(251,255,249);"/>
          </g>
          <g transform="matrix(1,0,0,1,2.04188,-0.363131)">
            <path d="M24.215,32.606L11.701,32.606L11.701,45.12L24.215,45.12L24.215,32.606ZM23.215,33.606L23.215,44.12L12.701,44.12L12.701,33.606L23.215,33.606Z" style="fill:rgb(16,16,16);fill-rule:nonzero;"/>
          </g>
        </g>
        <g transform="matrix(1,0,0,1,-140,-1100)">
          <path d="M203.386,1137.5L203.386,1132.88L217.46,1138.5L203.386,1144.12L203.386,1139.5L184.54,1139.5C183.988,1139.5 183.54,1139.05 183.54,1138.5C183.54,1137.95 183.988,1137.5 184.54,1137.5L203.386,1137.5Z" style="fill:rgb(16,16,16);"/>
        </g>
        <g id="frame" transform="matrix(1,0,0,1,1,1)">
          <path d="M-1,-1L-1,76L121,76L121,-1L-1,-1ZM119,1L119,74L1,74L1,1L119,1Z" style="fill:rgb(16,16,16);fill-rule:nonzero;"/>
        </g>
      </g>
    </g>
  </g>
</svg>