<?xml version="1.0" encoding="UTF-8" standalone="no"?>
<!DOCTYPE svg PUBLIC "-//W3C//DTD SVG 1.1//EN" "http://www.w3.org/Graphics/SVG/1.1/DTD/svg11.dtd">
<svg width="100%" height="100%" viewBox="0 0 122 77" version="1.1" xmlns="http://www.w3.org/2000/svg" xmlns:xlink="http://www.w3.org/1999/xlink" xml:space="preserve" xmlns:serif="http://www.serif.com/" style="fill-rule:evenodd;clip-rule:evenodd;stroke-linejoin:round;stroke-miterlimit:2;">
  <metadata xmlns:rdf="http://www.w3.org/1999/02/22-rdf-syntax-ns#" xmlns:dc11="http://purl.org/dc/elements/1.1/" xmlns:cc="http://creativecommons.org/ns#">
    <rdf:RDF>
      <cc:Work rdf:about="">
        <dc11:format>image/svg+xml</dc11:format>
        <dc11:type rdf:resource="http://purl.org/dc/dcmitype/StillImage"/>
        <cc:license rdf:resource="http://creativecommons.org/licenses/by-sa/4.0/"/>
        <cc:attributionName>codeclou</cc:attributionName>
        <cc:attributionURL rdf:resource="https://codeclou.com"/>
      </cc:Work>
      <cc:License rdf:about="http://creativecommons.org/licenses/by-sa/4.0/">
        <cc:permits rdf:resource="http://creativecommons.org/ns#Reproduction"/>
        <cc:permits rdf:resource="http://creativecommons.org/ns#Distribution"/>
        <cc:permits rdf:resource="http://creativecommons.org/ns#DerivativeWorks"/>
        <cc:requires rdf:resource="http://creativecommons.org/ns#Notice"/>
        <cc:requires rdf:resource="http://creativecommons.org/ns#Attribution"/>
        <cc:requires rdf:resource="http://creativecommons.org/ns#ShareAlike"/>
      </cc:License>
    </rdf:RDF>
  </metadata>
  <g transform="matrix(1,0,0,1,-420,-300)">
    <g id="Channel-Adapter" serif:id="Channel Adapter" transform="matrix(1,0,0,1,420,300)">
      <rect x="0" y="0" width="122" height="77" style="fill:none;"/>
      <g>
        <g transform="matrix(1.26771,0,0,1.02575,-17.7277,-1.36459)">
          <path d="M50.664,74.448L74.329,55.707L74.329,21.669L50.664,3.28L50.664,74.448Z" style="fill:rgb(227,233,255);fill-rule:nonzero;"/>
        </g>
        <g transform="matrix(1.26771,0,0,1.02575,-17.7277,-1.36459)">
          <path d="M49.876,76.23L75.118,56.24L75.118,21.131L49.875,1.516L49.876,76.23ZM51.453,5.045L73.54,22.536L73.54,55.502L51.453,72.665L51.453,5.045Z" style="fill:rgb(16,16,16);fill-rule:nonzero;"/>
        </g>
      </g>
    </g>
  </g>
</svg>