<?xml version="1.0" encoding="UTF-8" standalone="no"?>
<!DOCTYPE svg PUBLIC "-//W3C//DTD SVG 1.1//EN" "http://www.w3.org/Graphics/SVG/1.1/DTD/svg11.dtd">
<svg width="100%" height="100%" viewBox="0 0 122 77" version="1.1" xmlns="http://www.w3.org/2000/svg" xmlns:xlink="http://www.w3.org/1999/xlink" xml:space="preserve" xmlns:serif="http://www.serif.com/" style="fill-rule:evenodd;clip-rule:evenodd;stroke-linejoin:round;stroke-miterlimit:2;">
  <metadata xmlns:rdf="http://www.w3.org/1999/02/22-rdf-syntax-ns#" xmlns:dc11="http://purl.org/dc/elements/1.1/" xmlns:cc="http://creativecommons.org/ns#">
    <rdf:RDF>
      <cc:Work rdf:about="">
        <dc11:format>image/svg+xml</dc11:format>
        <dc11:type rdf:resource="http://purl.org/dc/dcmitype/StillImage"/>
        <cc:license rdf:resource="http://creativecommons.org/licenses/by-sa/4.0/"/>
        <cc:attributionName>codeclou</cc:attributionName>
        <cc:attributionURL rdf:resource="https://codeclou.com"/>
      </cc:Work>
      <cc:License rdf:about="http://creativecommons.org/licenses/by-sa/4.0/">
        <cc:permits rdf:resource="http://creativecommons.org/ns#Reproduction"/>
        <cc:permits rdf:resource="http://creativecommons.org/ns#Distribution"/>
        <cc:permits rdf:resource="http://creativecommons.org/ns#DerivativeWorks"/>
        <cc:requires rdf:resource="http://creativecommons.org/ns#Notice"/>
        <cc:requires rdf:resource="http://creativecommons.org/ns#Attribution"/>
        <cc:requires rdf:resource="http://creativecommons.org/ns#ShareAlike"/>
      </cc:License>
    </rdf:RDF>
  </metadata>
  <g transform="matrix(1,0,0,1,-140,-200)">
    <g id="Composed-Message-Processor" serif:id="Composed Message Processor" transform="matrix(1,0,0,1,140,200)">
      <rect x="0" y="0" width="122" height="77" style="fill:rgb(156,242,156);"/>
      <g>
        <g>
          <g transform="matrix(1,0,0,1,-0.390383,-0.363131)">
            <rect x="96.634" y="33.106" width="11.514" height="11.514" style="fill:rgb(251,255,249);"/>
          </g>
          <g transform="matrix(1,0,0,1,-0.390383,-0.363131)">
            <path d="M108.647,32.606L96.134,32.606L96.134,45.12L108.647,45.12L108.647,32.606ZM107.647,33.606L107.647,44.12L97.134,44.12L97.134,33.606L107.647,33.606Z" style="fill:rgb(16,16,16);fill-rule:nonzero;"/>
          </g>
        </g>
        <g>
          <g transform="matrix(1,0,0,1,25.75,-5.55997)">
            <rect x="29.493" y="54.303" width="11.514" height="11.514" style="fill:rgb(251,255,249);"/>
          </g>
          <g transform="matrix(1,0,0,1,25.75,-5.55997)">
            <path d="M41.507,53.803L28.993,53.803L28.993,66.317L41.507,66.317L41.507,53.803ZM40.507,54.803L40.507,65.317L29.993,65.317L29.993,54.803L40.507,54.803Z" style="fill:rgb(16,16,16);fill-rule:nonzero;"/>
          </g>
        </g>
        <g>
          <g transform="matrix(1,0,0,1,25.75,-5.53283)">
            <rect x="29.493" y="38.276" width="11.514" height="11.514" style="fill:rgb(251,255,249);"/>
          </g>
          <g transform="matrix(1,0,0,1,25.75,-5.53283)">
            <path d="M41.507,37.776L28.993,37.776L28.993,50.29L41.507,50.29L41.507,37.776ZM40.507,38.776L40.507,49.29L29.993,49.29L29.993,38.776L40.507,38.776Z" style="fill:rgb(16,16,16);fill-rule:nonzero;"/>
          </g>
        </g>
        <g>
          <g transform="matrix(1,0,0,1,25.75,-5.94003)">
            <rect x="29.493" y="22.683" width="11.514" height="11.514" style="fill:rgb(251,255,249);"/>
          </g>
          <g transform="matrix(1,0,0,1,25.75,-5.94003)">
            <path d="M41.507,22.183L28.993,22.183L28.993,34.697L41.507,34.697L41.507,22.183ZM40.507,23.183L40.507,33.697L29.993,33.697L29.993,23.183L40.507,23.183Z" style="fill:rgb(16,16,16);fill-rule:nonzero;"/>
          </g>
        </g>
        <g>
          <g transform="matrix(1,0,0,1,2.10962,-0.363131)">
            <rect x="12.134" y="33.106" width="11.514" height="11.514" style="fill:rgb(251,255,249);"/>
          </g>
          <g transform="matrix(1,0,0,1,2.10962,-0.363131)">
            <path d="M24.147,32.606L11.634,32.606L11.634,45.12L24.147,45.12L24.147,32.606ZM23.147,33.606L23.147,44.12L12.634,44.12L12.634,33.606L23.147,33.606Z" style="fill:rgb(16,16,16);fill-rule:nonzero;"/>
          </g>
        </g>
        <g transform="matrix(1,0,0,1,-140,-200)">
          <path d="M181.015,237.5L181.015,234.438L191.18,238.5L181.015,242.563L181.015,239.5L169.82,239.5C169.268,239.5 168.82,239.052 168.82,238.5C168.82,237.948 169.268,237.5 169.82,237.5L181.015,237.5Z" style="fill:rgb(16,16,16);"/>
        </g>
        <g transform="matrix(1,0,0,1,-140,-200)">
          <path d="M222.015,237.5L222.015,234.438L232.18,238.5L222.015,242.563L222.015,239.5L210.82,239.5C210.268,239.5 209.82,239.052 209.82,238.5C209.82,237.948 210.268,237.5 210.82,237.5L222.015,237.5Z" style="fill:rgb(16,16,16);"/>
        </g>
        <g id="frame" transform="matrix(1,0,0,1,1,1)">
          <path d="M-1,-1L-1,76L121,76L121,-1L-1,-1ZM119,1L119,74L1,74L1,1L119,1Z" style="fill:rgb(16,16,16);fill-rule:nonzero;"/>
        </g>
      </g>
    </g>
  </g>
</svg>