<?xml version="1.0" encoding="UTF-8" standalone="no"?>
<!DOCTYPE svg PUBLIC "-//W3C//DTD SVG 1.1//EN" "http://www.w3.org/Graphics/SVG/1.1/DTD/svg11.dtd">
<svg width="100%" height="100%" viewBox="0 0 122 77" version="1.1" xmlns="http://www.w3.org/2000/svg" xmlns:xlink="http://www.w3.org/1999/xlink" xml:space="preserve" xmlns:serif="http://www.serif.com/" style="fill-rule:evenodd;clip-rule:evenodd;stroke-linejoin:round;stroke-miterlimit:2;">
  <metadata xmlns:rdf="http://www.w3.org/1999/02/22-rdf-syntax-ns#" xmlns:dc11="http://purl.org/dc/elements/1.1/" xmlns:cc="http://creativecommons.org/ns#">
    <rdf:RDF>
      <cc:Work rdf:about="">
        <dc11:format>image/svg+xml</dc11:format>
        <dc11:type rdf:resource="http://purl.org/dc/dcmitype/StillImage"/>
        <cc:license rdf:resource="http://creativecommons.org/licenses/by-sa/4.0/"/>
        <cc:attributionName>codeclou</cc:attributionName>
        <cc:attributionURL rdf:resource="https://codeclou.com"/>
      </cc:Work>
      <cc:License rdf:about="http://creativecommons.org/licenses/by-sa/4.0/">
        <cc:permits rdf:resource="http://creativecommons.org/ns#Reproduction"/>
        <cc:permits rdf:resource="http://creativecommons.org/ns#Distribution"/>
        <cc:permits rdf:resource="http://creativecommons.org/ns#DerivativeWorks"/>
        <cc:requires rdf:resource="http://creativecommons.org/ns#Notice"/>
        <cc:requires rdf:resource="http://creativecommons.org/ns#Attribution"/>
        <cc:requires rdf:resource="http://creativecommons.org/ns#ShareAlike"/>
      </cc:License>
    </rdf:RDF>
  </metadata>
  <g transform="matrix(1,0,0,1,0,-100)">
    <g id="Command-Message" serif:id="Command Message" transform="matrix(1,0,0,1,0,100)">
      <rect x="0" y="0" width="122" height="77" style="fill:none;"/>
      <g transform="matrix(0.854058,0,0,0.854058,13.8781,0.591165)">
        <path d="M62.199,13.944C62.199,17.798 59.028,20.969 55.174,20.969C51.32,20.969 48.149,17.798 48.149,13.944C48.149,10.09 51.32,6.919 55.174,6.919C59.028,6.919 62.199,10.09 62.199,13.944Z" style="fill:rgb(204,204,204);fill-rule:nonzero;"/>
      </g>
      <g transform="matrix(1,0,0,1,0,-100)">
        <path d="M60.5,118.981C57.164,118.722 54.5,115.897 54.5,112.5C54.5,108.934 57.434,106 61,106C64.566,106 67.5,108.934 67.5,112.5C67.5,115.897 64.836,118.722 61.5,118.981L61.5,131.5L68.5,131.5C68.776,131.5 69,131.724 69,132C69,132.276 68.776,132.5 68.5,132.5L61,132.5C60.724,132.5 60.5,132.276 60.5,132C60.5,131.961 60.505,131.923 60.513,131.886C60.505,131.849 60.5,131.811 60.5,131.772L60.5,118.981ZM55.5,112.5C55.5,115.517 57.983,118 61,118C64.017,118 66.5,115.517 66.5,112.5C66.5,109.483 64.017,107 61,107C57.983,107 55.5,109.483 55.5,112.5Z" style="fill:rgb(16,16,16);fill-rule:nonzero;"/>
      </g>
      <g transform="matrix(1,0,0,1,0.5,-6.5)">
        <g transform="matrix(1.1291,0,0,1.1291,-4.94917,0.120184)">
          <rect x="64.608" y="28.235" width="11.514" height="11.514" style="fill:rgb(255,233,251);"/>
        </g>
        <g transform="matrix(1.1291,0,0,1.1291,-4.94917,0.120184)">
          <path d="M76.565,27.792L64.166,27.792L64.166,40.191L76.565,40.191L76.565,27.792ZM75.679,28.678L75.679,39.306L65.051,39.306L65.051,28.678L75.679,28.678Z" style="fill:rgb(16,16,16);fill-rule:nonzero;"/>
        </g>
        <g transform="matrix(11.1429,0,0,11.1429,70.3716,42.4836)">
          <path d="M0.545,-0.474L0.697,-0.474C0.692,-0.515 0.681,-0.552 0.663,-0.584C0.645,-0.616 0.622,-0.643 0.595,-0.665C0.567,-0.686 0.536,-0.703 0.501,-0.714C0.466,-0.725 0.428,-0.731 0.389,-0.731C0.334,-0.731 0.285,-0.721 0.242,-0.702C0.198,-0.683 0.161,-0.656 0.131,-0.622C0.101,-0.588 0.078,-0.548 0.062,-0.503C0.046,-0.457 0.038,-0.407 0.038,-0.354C0.038,-0.302 0.046,-0.254 0.062,-0.209C0.078,-0.164 0.101,-0.124 0.131,-0.091C0.161,-0.058 0.198,-0.032 0.242,-0.013C0.285,0.007 0.334,0.016 0.389,0.016C0.433,0.016 0.473,0.009 0.51,-0.004C0.547,-0.017 0.579,-0.037 0.606,-0.062C0.633,-0.087 0.655,-0.118 0.672,-0.154C0.689,-0.19 0.699,-0.23 0.703,-0.275L0.551,-0.275C0.545,-0.227 0.529,-0.188 0.502,-0.159C0.475,-0.13 0.437,-0.115 0.389,-0.115C0.354,-0.115 0.324,-0.122 0.299,-0.136C0.274,-0.149 0.254,-0.167 0.239,-0.19C0.224,-0.213 0.213,-0.238 0.206,-0.267C0.199,-0.295 0.195,-0.324 0.195,-0.354C0.195,-0.385 0.199,-0.416 0.206,-0.445C0.213,-0.474 0.224,-0.501 0.239,-0.524C0.254,-0.547 0.274,-0.565 0.299,-0.579C0.324,-0.592 0.354,-0.599 0.389,-0.599C0.408,-0.599 0.427,-0.596 0.445,-0.59C0.462,-0.583 0.478,-0.574 0.492,-0.563C0.506,-0.552 0.518,-0.539 0.527,-0.524C0.536,-0.509 0.542,-0.492 0.545,-0.474Z" style="fill:rgb(239,69,72);fill-rule:nonzero;"/>
        </g>
      </g>
    </g>
  </g>
</svg>