<?xml version="1.0" encoding="UTF-8" standalone="no"?>
<!DOCTYPE svg PUBLIC "-//W3C//DTD SVG 1.1//EN" "http://www.w3.org/Graphics/SVG/1.1/DTD/svg11.dtd">
<svg width="100%" height="100%" viewBox="0 0 122 77" version="1.1" xmlns="http://www.w3.org/2000/svg" xmlns:xlink="http://www.w3.org/1999/xlink" xml:space="preserve" xmlns:serif="http://www.serif.com/" style="fill-rule:evenodd;clip-rule:evenodd;stroke-linejoin:round;stroke-miterlimit:2;">
  <metadata xmlns:rdf="http://www.w3.org/1999/02/22-rdf-syntax-ns#" xmlns:dc11="http://purl.org/dc/elements/1.1/" xmlns:cc="http://creativecommons.org/ns#">
    <rdf:RDF>
      <cc:Work rdf:about="">
        <dc11:format>image/svg+xml</dc11:format>
        <dc11:type rdf:resource="http://purl.org/dc/dcmitype/StillImage"/>
        <cc:license rdf:resource="http://creativecommons.org/licenses/by-sa/4.0/"/>
        <cc:attributionName>codeclou</cc:attributionName>
        <cc:attributionURL rdf:resource="https://codeclou.com"/>
      </cc:Work>
      <cc:License rdf:about="http://creativecommons.org/licenses/by-sa/4.0/">
        <cc:permits rdf:resource="http://creativecommons.org/ns#Reproduction"/>
        <cc:permits rdf:resource="http://creativecommons.org/ns#Distribution"/>
        <cc:permits rdf:resource="http://creativecommons.org/ns#DerivativeWorks"/>
        <cc:requires rdf:resource="http://creativecommons.org/ns#Notice"/>
        <cc:requires rdf:resource="http://creativecommons.org/ns#Attribution"/>
        <cc:requires rdf:resource="http://creativecommons.org/ns#ShareAlike"/>
      </cc:License>
    </rdf:RDF>
  </metadata>
  <g transform="matrix(1,0,0,1,-840,-400)">
    <g id="Message-Store" serif:id="Message Store" transform="matrix(1,0,0,1,840,400)">
      <rect x="0" y="0" width="122" height="77" style="fill:rgb(156,242,156);"/>
      <g>
        <g transform="matrix(0.980393,0,0,1,1.2058,0)">
          <g transform="matrix(2.69413e-17,-0.439984,2.16851,1.32783e-16,-673.062,250.18)">
            <path d="M438.91,326.77L438.91,326.75L523.244,326.75L523.244,350.25L439.24,350.25C439.094,350.262 438.947,350.268 438.8,350.268C434.492,350.268 430.995,345.003 430.995,338.518C430.995,332.033 434.492,326.768 438.8,326.768C438.837,326.768 438.873,326.769 438.91,326.77Z" style="fill:rgb(230,230,230);"/>
          </g>
          <g transform="matrix(2.69413e-17,-0.439984,2.16851,1.32783e-16,-673.062,250.18)">
            <path d="M431.882,333.077C431.918,332.974 523.244,333.07 523.244,333.07L523.244,340.831C523.244,340.831 431.159,340.924 431.157,340.906C431.051,340.135 430.995,339.336 430.995,338.518C430.995,336.555 431.316,334.704 431.882,333.077Z" style="fill:rgb(204,204,204);"/>
          </g>
          <g transform="matrix(2.69413e-17,-0.439984,2.16851,1.32783e-16,-673.062,250.18)">
            <path d="M438.91,326.77L438.91,326.75L523.244,326.75L523.244,333.114C523.244,333.114 431.834,333.215 431.882,333.077C433.187,329.328 435.796,326.768 438.8,326.768C438.837,326.768 438.873,326.769 438.91,326.77Z" style="fill:rgb(153,153,153);"/>
          </g>
          <g transform="matrix(1.87276e-17,-0.305845,2.28081,1.39659e-16,-698.543,180.557)">
            <circle cx="525.03" cy="333.006" r="11.154" style="fill:rgb(230,230,230);"/>
          </g>
          <g transform="matrix(1,0,0,1,-840,-400)">
            <path d="M875,420.185C874.987,420.119 874.98,420.053 874.98,419.988C874.98,419.698 875.109,419.397 875.414,419.118C875.867,418.705 876.82,418.29 878.204,417.932C882.473,416.828 891.074,416.068 900.98,416.068C910.886,416.068 919.487,416.828 923.756,417.932C925.14,418.29 926.093,418.705 926.546,419.118C926.816,419.366 926.948,419.63 926.975,419.889L927,419.864L927,457.134C927,457.489 926.798,457.872 926.312,458.208C925.814,458.552 924.964,458.889 923.808,459.191C919.575,460.297 911.028,461.06 901.07,461.06C891.113,461.06 882.498,460.297 878.224,459.191C876.839,458.833 875.886,458.417 875.433,458.003C875.129,457.724 875,457.424 875,457.134L875,420.185ZM926,421.232C925.478,421.517 924.722,421.795 923.756,422.044C919.487,423.148 910.886,423.909 900.98,423.909C891.074,423.909 882.473,423.148 878.204,422.044C877.263,421.801 876.521,421.531 876,421.254L876,457.134C876,457.162 876.028,457.182 876.052,457.209C876.104,457.269 876.175,457.327 876.261,457.386C876.7,457.686 877.456,457.962 878.475,458.225C882.702,459.319 891.223,460.062 901.07,460.062C910.917,460.062 919.369,459.32 923.554,458.226C924.562,457.962 925.309,457.687 925.742,457.387C925.827,457.329 925.897,457.271 925.949,457.211C925.973,457.183 926,457.163 926,457.134L926,421.232ZM925.978,419.988C925.978,419.961 925.95,419.943 925.927,419.916C925.875,419.856 925.804,419.799 925.718,419.74C925.279,419.441 924.523,419.166 923.506,418.903C919.283,417.811 910.777,417.07 900.98,417.07C891.184,417.07 882.677,417.811 878.455,418.903C877.437,419.166 876.681,419.441 876.242,419.74C876.156,419.799 876.085,419.856 876.033,419.916C876.01,419.943 875.982,419.961 875.982,419.988C875.982,420.016 876.01,420.034 876.033,420.06C876.085,420.12 876.156,420.178 876.242,420.236C876.681,420.536 877.437,420.811 878.455,421.074C882.677,422.166 891.184,422.906 900.98,422.906C910.777,422.906 919.283,422.166 923.506,421.074C924.523,420.811 925.279,420.536 925.718,420.236C925.804,420.178 925.875,420.12 925.927,420.06C925.95,420.034 925.978,420.016 925.978,419.988Z" style="fill:rgb(16,16,16);fill-rule:nonzero;"/>
          </g>
        </g>
        <g id="frame" transform="matrix(1,0,0,1,1,1)">
          <path d="M-1,-1L-1,76L121,76L121,-1L-1,-1ZM119,1L119,74L1,74L1,1L119,1Z" style="fill:rgb(16,16,16);fill-rule:nonzero;"/>
        </g>
      </g>
    </g>
  </g>
</svg>