<?xml version="1.0" encoding="UTF-8" standalone="no"?>
<!DOCTYPE svg PUBLIC "-//W3C//DTD SVG 1.1//EN" "http://www.w3.org/Graphics/SVG/1.1/DTD/svg11.dtd">
<svg width="100%" height="100%" viewBox="0 0 122 77" version="1.1" xmlns="http://www.w3.org/2000/svg" xmlns:xlink="http://www.w3.org/1999/xlink" xml:space="preserve" xmlns:serif="http://www.serif.com/" style="fill-rule:evenodd;clip-rule:evenodd;stroke-linejoin:round;stroke-miterlimit:2;">
  <metadata xmlns:rdf="http://www.w3.org/1999/02/22-rdf-syntax-ns#" xmlns:dc11="http://purl.org/dc/elements/1.1/" xmlns:cc="http://creativecommons.org/ns#">
    <rdf:RDF>
      <cc:Work rdf:about="">
        <dc11:format>image/svg+xml</dc11:format>
        <dc11:type rdf:resource="http://purl.org/dc/dcmitype/StillImage"/>
        <cc:license rdf:resource="http://creativecommons.org/licenses/by-sa/4.0/"/>
        <cc:attributionName>codeclou</cc:attributionName>
        <cc:attributionURL rdf:resource="https://codeclou.com"/>
      </cc:Work>
      <cc:License rdf:about="http://creativecommons.org/licenses/by-sa/4.0/">
        <cc:permits rdf:resource="http://creativecommons.org/ns#Reproduction"/>
        <cc:permits rdf:resource="http://creativecommons.org/ns#Distribution"/>
        <cc:permits rdf:resource="http://creativecommons.org/ns#DerivativeWorks"/>
        <cc:requires rdf:resource="http://creativecommons.org/ns#Notice"/>
        <cc:requires rdf:resource="http://creativecommons.org/ns#Attribution"/>
        <cc:requires rdf:resource="http://creativecommons.org/ns#ShareAlike"/>
      </cc:License>
    </rdf:RDF>
  </metadata>
  <g transform="matrix(1,0,0,1,-840,-300)">
    <g id="Detour" transform="matrix(1,0,0,1,840,300)">
      <rect x="0" y="0" width="122" height="77" style="fill:rgb(156,242,156);"/>
      <g>
        <g transform="matrix(1,0,0,1,-840,-300)">
          <path d="M884.372,355.5C883.923,357.217 882.349,358.5 880.5,358.5C878.65,358.5 877.077,357.217 876.628,355.5L850.5,355.5C849.948,355.5 849.5,355.052 849.5,354.5C849.5,353.948 849.948,353.5 850.5,353.5L876.628,353.5C877.077,351.783 878.65,350.5 880.5,350.5C882.35,350.5 883.923,351.783 884.372,353.5L917.628,353.5C918.077,351.783 919.65,350.5 921.5,350.5C923.35,350.5 924.923,351.783 925.372,353.5L951.5,353.5C952.052,353.5 952.5,353.948 952.5,354.5C952.5,355.052 952.052,355.5 951.5,355.5L925.372,355.5C924.923,357.217 923.349,358.5 921.5,358.5C919.65,358.5 918.077,357.217 917.628,355.5L884.372,355.5Z" style="fill:rgb(16,16,16);"/>
        </g>
        <g transform="matrix(1,0,0,1,-840,-300)">
          <path d="M925.372,323.5C924.923,325.217 923.349,326.5 921.5,326.5C919.306,326.5 917.5,324.694 917.5,322.5C917.5,320.306 919.306,318.5 921.5,318.5C923.35,318.5 924.923,319.783 925.372,321.5L951.5,321.5C952.052,321.5 952.5,321.948 952.5,322.5C952.5,323.052 952.052,323.5 951.5,323.5L925.372,323.5Z" style="fill:rgb(16,16,16);"/>
        </g>
        <g id="frame" transform="matrix(1,0,0,1,1,1)">
          <path d="M-1,-1L-1,76L121,76L121,-1L-1,-1ZM119,1L119,74L1,74L1,1L119,1Z" style="fill:rgb(16,16,16);fill-rule:nonzero;"/>
        </g>
        <path d="M41.115,55.288C41.115,55.288 41.686,54.843 42.692,54.058C43.127,53.718 43.205,53.089 42.865,52.654C42.525,52.219 41.896,52.142 41.461,52.481C40.455,53.266 39.885,53.712 39.885,53.712C39.45,54.051 39.372,54.68 39.712,55.115C40.051,55.55 40.68,55.628 41.115,55.288ZM45.845,51.597C46.341,51.21 46.868,50.799 47.422,50.366C47.857,50.027 47.934,49.398 47.595,48.963C47.255,48.527 46.626,48.45 46.191,48.79C45.637,49.222 45.11,49.633 44.615,50.02C44.18,50.36 44.102,50.989 44.442,51.424C44.781,51.859 45.41,51.936 45.845,51.597ZM50.575,47.905C51.088,47.505 51.614,47.094 52.152,46.675C52.587,46.335 52.664,45.706 52.325,45.271C51.985,44.836 51.356,44.758 50.921,45.098C50.384,45.517 49.858,45.928 49.344,46.328C48.909,46.668 48.832,47.297 49.171,47.732C49.511,48.167 50.14,48.245 50.575,47.905ZM55.305,44.213C55.825,43.808 56.351,43.397 56.882,42.983C57.317,42.643 57.394,42.014 57.055,41.579C56.715,41.144 56.086,41.067 55.651,41.406C55.12,41.82 54.594,42.231 54.074,42.637C53.639,42.976 53.562,43.605 53.901,44.04C54.241,44.476 54.87,44.553 55.305,44.213ZM60.035,40.522C60.559,40.112 61.085,39.702 61.612,39.291C62.047,38.952 62.124,38.323 61.785,37.888C61.445,37.453 60.816,37.375 60.381,37.715C59.855,38.125 59.329,38.536 58.804,38.945C58.369,39.285 58.292,39.914 58.631,40.349C58.971,40.784 59.6,40.861 60.035,40.522ZM64.765,36.83C65.294,36.417 65.82,36.007 66.341,35.6C66.777,35.26 66.854,34.631 66.514,34.196C66.175,33.761 65.546,33.683 65.111,34.023C64.589,34.43 64.063,34.841 63.534,35.254C63.099,35.593 63.022,36.222 63.361,36.657C63.701,37.092 64.33,37.17 64.765,36.83ZM69.495,33.139C70.029,32.721 70.555,32.311 71.071,31.908C71.506,31.568 71.584,30.939 71.244,30.504C70.905,30.069 70.276,29.992 69.841,30.331C69.325,30.734 68.799,31.145 68.264,31.562C67.829,31.901 67.752,32.53 68.091,32.965C68.431,33.401 69.06,33.478 69.495,33.139ZM74.225,29.447C74.771,29.021 75.297,28.61 75.801,28.216C76.236,27.877 76.314,27.248 75.974,26.813C75.635,26.378 75.006,26.3 74.571,26.64C74.067,27.033 73.54,27.444 72.994,27.87C72.559,28.21 72.481,28.839 72.821,29.274C73.161,29.709 73.79,29.786 74.225,29.447ZM78.954,25.755C79.557,25.285 80.086,24.872 80.531,24.525C80.966,24.185 81.044,23.556 80.704,23.121C80.365,22.686 79.736,22.609 79.301,22.948C78.856,23.295 78.327,23.708 77.724,24.179C77.289,24.518 77.211,25.147 77.551,25.582C77.89,26.017 78.519,26.095 78.954,25.755Z" style="fill:rgb(16,16,16);"/>
      </g>
    </g>
  </g>
</svg>