<?xml version="1.0" encoding="UTF-8" standalone="no"?>
<!DOCTYPE svg PUBLIC "-//W3C//DTD SVG 1.1//EN" "http://www.w3.org/Graphics/SVG/1.1/DTD/svg11.dtd">
<svg width="100%" height="100%" viewBox="0 0 122 77" version="1.1" xmlns="http://www.w3.org/2000/svg" xmlns:xlink="http://www.w3.org/1999/xlink" xml:space="preserve" xmlns:serif="http://www.serif.com/" style="fill-rule:evenodd;clip-rule:evenodd;stroke-linejoin:round;stroke-miterlimit:2;">
  <metadata xmlns:rdf="http://www.w3.org/1999/02/22-rdf-syntax-ns#" xmlns:dc11="http://purl.org/dc/elements/1.1/" xmlns:cc="http://creativecommons.org/ns#">
    <rdf:RDF>
      <cc:Work rdf:about="">
        <dc11:format>image/svg+xml</dc11:format>
        <dc11:type rdf:resource="http://purl.org/dc/dcmitype/StillImage"/>
        <cc:license rdf:resource="http://creativecommons.org/licenses/by-sa/4.0/"/>
        <cc:attributionName>codeclou</cc:attributionName>
        <cc:attributionURL rdf:resource="https://codeclou.com"/>
      </cc:Work>
      <cc:License rdf:about="http://creativecommons.org/licenses/by-sa/4.0/">
        <cc:permits rdf:resource="http://creativecommons.org/ns#Reproduction"/>
        <cc:permits rdf:resource="http://creativecommons.org/ns#Distribution"/>
        <cc:permits rdf:resource="http://creativecommons.org/ns#DerivativeWorks"/>
        <cc:requires rdf:resource="http://creativecommons.org/ns#Notice"/>
        <cc:requires rdf:resource="http://creativecommons.org/ns#Attribution"/>
        <cc:requires rdf:resource="http://creativecommons.org/ns#ShareAlike"/>
      </cc:License>
    </rdf:RDF>
  </metadata>
  <g transform="matrix(1,0,0,1,0,-600)">
    <g id="Message-Sequence" serif:id="Message Sequence" transform="matrix(1,0,0,1,0,600)">
      <rect x="0" y="0" width="122" height="77" style="fill:none;"/>
      <g transform="matrix(1,0,0,1,0,-600)">
        <path d="M64.526,624.686C65.915,622.541 68.273,620.591 72.261,620.591C75.792,620.591 78.048,621.805 79.49,623.243C81.677,625.423 81.996,628.151 81.996,628.151C82.029,628.425 81.833,628.674 81.559,628.707C81.285,628.74 81.036,628.544 81.004,628.27C81.004,628.27 80.608,625.005 77.678,623.044C76.404,622.192 74.654,621.591 72.261,621.591C68.86,621.591 66.786,623.18 65.527,624.991L68.851,626.004L63.1,630.21L60.672,623.512L64.526,624.686Z" style="fill:rgb(16,16,16);"/>
      </g>
      <g transform="matrix(1,0,0,1,0,-600)">
        <path d="M42.385,624.365C43.774,622.219 46.132,620.27 50.12,620.27C53.651,620.27 55.907,621.483 57.35,622.921C59.536,625.102 59.856,627.83 59.856,627.83C59.888,628.104 59.692,628.353 59.418,628.385C59.144,628.418 58.895,628.222 58.863,627.948C58.863,627.948 58.467,624.684 55.537,622.723C54.263,621.87 52.513,621.27 50.12,621.27C46.719,621.27 44.645,622.858 43.386,624.67L46.71,625.683L40.959,629.889L38.531,623.19L42.385,624.365Z" style="fill:rgb(16,16,16);"/>
      </g>
      <g>
        <g transform="matrix(1.1291,0,0,1.1291,-11.6625,-0.387271)">
          <rect x="76.754" y="28.684" width="11.514" height="11.514" style="fill:rgb(227,255,229);"/>
        </g>
        <g transform="matrix(1.1291,0,0,1.1291,-11.6625,-0.387271)">
          <path d="M88.71,28.241L76.311,28.241L76.311,40.641L88.71,40.641L88.71,28.241ZM87.825,29.127L87.825,39.755L77.197,39.755L77.197,29.127L87.825,29.127Z" style="fill:rgb(16,16,16);fill-rule:nonzero;"/>
        </g>
        <g transform="matrix(12,0,0,12,78.1643,42.706)">
          <path d="M0.228,-0.417L0.228,-0.317C0.245,-0.317 0.264,-0.317 0.283,-0.316C0.302,-0.315 0.319,-0.311 0.335,-0.305C0.351,-0.298 0.364,-0.288 0.375,-0.274C0.385,-0.26 0.39,-0.24 0.39,-0.213C0.39,-0.179 0.379,-0.152 0.357,-0.133C0.335,-0.113 0.308,-0.103 0.276,-0.103C0.255,-0.103 0.238,-0.107 0.223,-0.114C0.208,-0.121 0.195,-0.131 0.185,-0.144C0.175,-0.156 0.167,-0.171 0.162,-0.188C0.157,-0.204 0.154,-0.222 0.153,-0.241L0.018,-0.241C0.017,-0.2 0.023,-0.164 0.036,-0.133C0.048,-0.102 0.065,-0.075 0.088,-0.054C0.111,-0.032 0.138,-0.015 0.171,-0.004C0.203,0.007 0.239,0.013 0.278,0.013C0.312,0.013 0.345,0.008 0.376,-0.002C0.407,-0.012 0.435,-0.027 0.459,-0.046C0.483,-0.065 0.502,-0.089 0.517,-0.118C0.531,-0.147 0.538,-0.179 0.538,-0.216C0.538,-0.256 0.527,-0.29 0.505,-0.319C0.483,-0.348 0.453,-0.366 0.414,-0.375L0.414,-0.377C0.447,-0.386 0.471,-0.404 0.488,-0.43C0.504,-0.456 0.512,-0.486 0.512,-0.52C0.512,-0.551 0.505,-0.579 0.491,-0.603C0.477,-0.627 0.459,-0.647 0.437,-0.664C0.414,-0.681 0.389,-0.693 0.361,-0.702C0.333,-0.71 0.305,-0.714 0.277,-0.714C0.241,-0.714 0.208,-0.708 0.179,-0.697C0.15,-0.685 0.125,-0.668 0.104,-0.647C0.083,-0.626 0.066,-0.6 0.055,-0.571C0.043,-0.541 0.036,-0.508 0.035,-0.472L0.17,-0.472C0.169,-0.508 0.178,-0.538 0.197,-0.562C0.215,-0.585 0.242,-0.597 0.278,-0.597C0.304,-0.597 0.327,-0.589 0.347,-0.573C0.367,-0.557 0.377,-0.534 0.377,-0.504C0.377,-0.484 0.372,-0.468 0.363,-0.456C0.353,-0.444 0.341,-0.435 0.326,-0.429C0.311,-0.422 0.294,-0.418 0.277,-0.417C0.26,-0.416 0.243,-0.416 0.228,-0.417Z" style="fill:rgb(19,121,44);fill-rule:nonzero;"/>
        </g>
      </g>
      <g>
        <g transform="matrix(1.1291,0,0,1.1291,-6.85072,-0.387271)">
          <rect x="54.336" y="28.684" width="11.514" height="11.514" style="fill:rgb(227,255,229);"/>
        </g>
        <g transform="matrix(1.1291,0,0,1.1291,-6.85072,-0.387271)">
          <path d="M66.292,28.241L53.893,28.241L53.893,40.641L66.292,40.641L66.292,28.241ZM65.407,29.127L65.407,39.755L54.779,39.755L54.779,29.127L65.407,29.127Z" style="fill:rgb(16,16,16);fill-rule:nonzero;"/>
        </g>
        <g transform="matrix(12,0,0,12,57.664,42.784)">
          <path d="M0.037,-0.431L0.173,-0.431C0.173,-0.45 0.175,-0.468 0.179,-0.488C0.182,-0.507 0.188,-0.524 0.197,-0.54C0.206,-0.555 0.217,-0.568 0.232,-0.578C0.246,-0.587 0.263,-0.592 0.284,-0.592C0.315,-0.592 0.34,-0.583 0.36,-0.564C0.379,-0.545 0.389,-0.518 0.389,-0.484C0.389,-0.463 0.384,-0.444 0.375,-0.427C0.365,-0.41 0.353,-0.395 0.339,-0.382C0.324,-0.369 0.308,-0.357 0.291,-0.346C0.274,-0.335 0.257,-0.324 0.242,-0.313C0.212,-0.292 0.184,-0.272 0.157,-0.252C0.13,-0.232 0.106,-0.21 0.086,-0.187C0.066,-0.163 0.05,-0.136 0.039,-0.106C0.027,-0.076 0.021,-0.041 0.021,-0L0.535,-0L0.535,-0.122L0.204,-0.122C0.221,-0.146 0.241,-0.167 0.264,-0.185C0.287,-0.203 0.31,-0.22 0.334,-0.236C0.358,-0.251 0.382,-0.267 0.406,-0.283C0.429,-0.299 0.45,-0.317 0.469,-0.337C0.488,-0.356 0.503,-0.379 0.514,-0.404C0.525,-0.429 0.531,-0.46 0.531,-0.495C0.531,-0.529 0.525,-0.56 0.512,-0.587C0.499,-0.614 0.481,-0.637 0.459,-0.656C0.437,-0.675 0.411,-0.689 0.383,-0.699C0.354,-0.709 0.323,-0.714 0.291,-0.714C0.249,-0.714 0.212,-0.707 0.18,-0.693C0.147,-0.678 0.12,-0.658 0.099,-0.633C0.078,-0.607 0.062,-0.577 0.051,-0.543C0.04,-0.508 0.036,-0.471 0.037,-0.431Z" style="fill:rgb(19,121,44);fill-rule:nonzero;"/>
        </g>
      </g>
      <g>
        <g transform="matrix(1.1291,0,0,1.1291,-2.12796,-0.387271)">
          <rect x="31.997" y="28.684" width="11.514" height="11.514" style="fill:rgb(227,255,229);"/>
        </g>
        <g transform="matrix(1.1291,0,0,1.1291,-2.12796,-0.387271)">
          <path d="M43.954,28.241L31.554,28.241L31.554,40.641L43.954,40.641L43.954,28.241ZM43.068,29.127L43.068,39.755L32.44,39.755L32.44,29.127L43.068,29.127Z" style="fill:rgb(16,16,16);fill-rule:nonzero;"/>
        </g>
        <g transform="matrix(12,0,0,12,37.204,42.7)">
          <path d="M0.392,-0L0.392,-0.7L0.279,-0.7C0.275,-0.673 0.267,-0.651 0.254,-0.633C0.241,-0.615 0.226,-0.6 0.208,-0.59C0.189,-0.579 0.168,-0.571 0.146,-0.567C0.123,-0.562 0.099,-0.56 0.074,-0.561L0.074,-0.454L0.25,-0.454L0.25,-0L0.392,-0Z" style="fill:rgb(19,121,44);fill-rule:nonzero;"/>
        </g>
      </g>
    </g>
  </g>
</svg>