<?xml version="1.0" encoding="UTF-8" standalone="no"?>
<!DOCTYPE svg PUBLIC "-//W3C//DTD SVG 1.1//EN" "http://www.w3.org/Graphics/SVG/1.1/DTD/svg11.dtd">
<svg width="100%" height="100%" viewBox="0 0 77 154" version="1.1" xmlns="http://www.w3.org/2000/svg" xmlns:xlink="http://www.w3.org/1999/xlink" xml:space="preserve" xmlns:serif="http://www.serif.com/" style="fill-rule:evenodd;clip-rule:evenodd;stroke-linejoin:round;stroke-miterlimit:2;">
  <metadata xmlns:rdf="http://www.w3.org/1999/02/22-rdf-syntax-ns#" xmlns:dc11="http://purl.org/dc/elements/1.1/" xmlns:cc="http://creativecommons.org/ns#">
    <rdf:RDF>
      <cc:Work rdf:about="">
        <dc11:format>image/svg+xml</dc11:format>
        <dc11:type rdf:resource="http://purl.org/dc/dcmitype/StillImage"/>
        <cc:license rdf:resource="http://creativecommons.org/licenses/by-sa/4.0/"/>
        <cc:attributionName>codeclou</cc:attributionName>
        <cc:attributionURL rdf:resource="https://codeclou.com"/>
      </cc:Work>
      <cc:License rdf:about="http://creativecommons.org/licenses/by-sa/4.0/">
        <cc:permits rdf:resource="http://creativecommons.org/ns#Reproduction"/>
        <cc:permits rdf:resource="http://creativecommons.org/ns#Distribution"/>
        <cc:permits rdf:resource="http://creativecommons.org/ns#DerivativeWorks"/>
        <cc:requires rdf:resource="http://creativecommons.org/ns#Notice"/>
        <cc:requires rdf:resource="http://creativecommons.org/ns#Attribution"/>
        <cc:requires rdf:resource="http://creativecommons.org/ns#ShareAlike"/>
      </cc:License>
    </rdf:RDF>
  </metadata>
  <g transform="matrix(1,0,0,1,-840,-700)">
    <g id="Smart-Proxy" serif:id="Smart Proxy" transform="matrix(0.631148,0,0,2,840,700)">
      <rect x="0" y="0" width="122" height="77" style="fill:rgb(156,242,156);"/>
      <g>
        <g transform="matrix(1.58442,0,0,0.807479,-42.2272,3.26577)">
          <path d="M64.152,58.68L64.152,59.918C64.152,60.26 64.6,60.537 65.152,60.537C65.704,60.537 66.152,60.26 66.152,59.918L66.152,58.68C66.152,58.338 65.704,58.061 65.152,58.061C64.6,58.061 64.152,58.338 64.152,58.68ZM64.152,54.965L64.152,56.203C64.152,56.545 64.6,56.822 65.152,56.822C65.704,56.822 66.152,56.545 66.152,56.203L66.152,54.965C66.152,54.623 65.704,54.345 65.152,54.345C64.6,54.345 64.152,54.623 64.152,54.965ZM64.152,51.249L64.152,52.488C64.152,52.829 64.6,53.107 65.152,53.107C65.704,53.107 66.152,52.829 66.152,52.488L66.152,51.249C66.152,50.907 65.704,50.63 65.152,50.63C64.6,50.63 64.152,50.907 64.152,51.249ZM64.152,47.534L64.152,48.772C64.152,49.114 64.6,49.392 65.152,49.392C65.704,49.392 66.152,49.114 66.152,48.772L66.152,47.534C66.152,47.192 65.704,46.915 65.152,46.915C64.6,46.915 64.152,47.192 64.152,47.534ZM64.152,43.819L64.152,45.057C64.152,45.399 64.6,45.676 65.152,45.676C65.704,45.676 66.152,45.399 66.152,45.057L66.152,43.819C66.152,43.477 65.704,43.199 65.152,43.199C64.6,43.199 64.152,43.477 64.152,43.819ZM64.152,40.103L64.152,41.342C64.152,41.684 64.6,41.961 65.152,41.961C65.704,41.961 66.152,41.684 66.152,41.342L66.152,40.103C66.152,39.762 65.704,39.484 65.152,39.484C64.6,39.484 64.152,39.762 64.152,40.103ZM64.152,36.388L64.152,37.627C64.152,37.968 64.6,38.246 65.152,38.246C65.704,38.246 66.152,37.968 66.152,37.627L66.152,36.388C66.152,36.046 65.704,35.769 65.152,35.769C64.6,35.769 64.152,36.046 64.152,36.388ZM64.152,32.673L64.152,33.911C64.152,34.253 64.6,34.531 65.152,34.531C65.704,34.531 66.152,34.253 66.152,33.911L66.152,32.673C66.152,32.331 65.704,32.054 65.152,32.054C64.6,32.054 64.152,32.331 64.152,32.673Z" style="fill:rgb(153,153,153);"/>
        </g>
        <g transform="matrix(1.58442,0,0,0.5,-1330.91,-350)">
          <path d="M862.628,814.5C863.077,812.783 864.65,811.5 866.5,811.5C868.694,811.5 870.5,813.306 870.5,815.5L870.5,815.504C870.498,817.697 868.693,819.5 866.5,819.5C864.65,819.5 863.077,818.217 862.628,816.5L846.5,816.5C845.948,816.5 845.5,816.052 845.5,815.5C845.5,814.948 845.948,814.5 846.5,814.5L862.628,814.5Z" style="fill:rgb(16,16,16);"/>
        </g>
        <g transform="matrix(1.58442,0,0,0.5,-1330.91,-350)">
          <path d="M862.628,830.5C863.077,828.783 864.65,827.5 866.5,827.5C868.694,827.5 870.5,829.306 870.5,831.5L870.5,831.504C870.498,833.697 868.693,835.5 866.5,835.5C864.65,835.5 863.077,834.217 862.628,832.5L846.5,832.5C845.948,832.5 845.5,832.052 845.5,831.5C845.5,830.948 845.948,830.5 846.5,830.5L862.628,830.5Z" style="fill:rgb(16,16,16);"/>
        </g>
        <g transform="matrix(1.58442,0,0,0.5,-1330.91,-350)">
          <path d="M894.586,814.678L869.535,802.094C868.799,802.953 867.708,803.5 866.5,803.5C864.65,803.5 863.077,802.217 862.628,800.5L846.5,800.5C845.948,800.5 845.5,800.052 845.5,799.5C845.5,798.948 845.948,798.5 846.5,798.5L862.628,798.5C863.077,796.783 864.65,795.5 866.5,795.5C868.694,795.5 870.5,797.306 870.5,799.5L870.5,799.504C870.5,799.776 870.472,800.042 870.419,800.3L895.48,812.889C896.216,812.04 897.3,811.5 898.5,811.5C900.35,811.5 901.923,812.783 902.372,814.5L915.889,814.5C916.441,814.5 916.889,814.948 916.889,815.5C916.889,816.052 916.441,816.5 915.889,816.5L902.372,816.5C901.923,818.217 900.349,819.5 898.5,819.5C896.306,819.5 894.5,817.694 894.5,815.5C894.5,815.219 894.53,814.944 894.586,814.678Z" style="fill:rgb(16,16,16);fill-rule:nonzero;"/>
        </g>
        <g transform="matrix(1.58442,0,0,0.5,-1330.91,-350)">
          <path d="M877.5,749.418L877.5,742.372C876.103,742.007 874.993,740.897 874.628,739.5L846.5,739.5C845.948,739.5 845.5,739.052 845.5,738.5C845.5,737.948 845.948,737.5 846.5,737.5L874.628,737.5C875.077,735.783 876.65,734.5 878.5,734.5C880.35,734.5 881.923,735.783 882.372,737.5L910.5,737.5C911.052,737.5 911.5,737.948 911.5,738.5C911.5,739.052 911.052,739.5 910.5,739.5L882.372,739.5C882.007,740.897 880.897,742.007 879.5,742.372L879.5,749.418L882.563,749.418L878.5,759.582L874.438,749.418L877.5,749.418Z" style="fill:rgb(16,16,16);fill-rule:nonzero;"/>
        </g>
        <g transform="matrix(0.99026,2.31899e-17,-2.26619e-17,1.01333,1.58442,0.5)">
          <path d="M121.6,75.493L-1.6,75.493L-1.6,-0.493L121.6,-0.493L121.6,75.493ZM1.6,0.493L1.6,74.507L118.4,74.507L118.4,0.493L1.6,0.493Z" style="fill:rgb(16,16,16);fill-rule:nonzero;"/>
        </g>
      </g>
    </g>
  </g>
</svg>