<?xml version="1.0" encoding="UTF-8" standalone="no"?>
<!DOCTYPE svg PUBLIC "-//W3C//DTD SVG 1.1//EN" "http://www.w3.org/Graphics/SVG/1.1/DTD/svg11.dtd">
<svg width="100%" height="100%" viewBox="0 0 122 77" version="1.1" xmlns="http://www.w3.org/2000/svg" xmlns:xlink="http://www.w3.org/1999/xlink" xml:space="preserve" xmlns:serif="http://www.serif.com/" style="fill-rule:evenodd;clip-rule:evenodd;stroke-linejoin:round;stroke-miterlimit:2;">
  <metadata xmlns:rdf="http://www.w3.org/1999/02/22-rdf-syntax-ns#" xmlns:dc11="http://purl.org/dc/elements/1.1/" xmlns:cc="http://creativecommons.org/ns#">
    <rdf:RDF>
      <cc:Work rdf:about="">
        <dc11:format>image/svg+xml</dc11:format>
        <dc11:type rdf:resource="http://purl.org/dc/dcmitype/StillImage"/>
        <cc:license rdf:resource="http://creativecommons.org/licenses/by-sa/4.0/"/>
        <cc:attributionName>codeclou</cc:attributionName>
        <cc:attributionURL rdf:resource="https://codeclou.com"/>
      </cc:Work>
      <cc:License rdf:about="http://creativecommons.org/licenses/by-sa/4.0/">
        <cc:permits rdf:resource="http://creativecommons.org/ns#Reproduction"/>
        <cc:permits rdf:resource="http://creativecommons.org/ns#Distribution"/>
        <cc:permits rdf:resource="http://creativecommons.org/ns#DerivativeWorks"/>
        <cc:requires rdf:resource="http://creativecommons.org/ns#Notice"/>
        <cc:requires rdf:resource="http://creativecommons.org/ns#Attribution"/>
        <cc:requires rdf:resource="http://creativecommons.org/ns#ShareAlike"/>
      </cc:License>
    </rdf:RDF>
  </metadata>
  <g transform="matrix(1,0,0,1,-280,-300)">
    <g id="Content-Filter" serif:id="Content Filter" transform="matrix(1,0,0,1,280,300)">
      <rect x="0" y="0" width="122" height="77" style="fill:rgb(156,242,156);"/>
      <g>
        <g>
          <g transform="matrix(1,0,0,1,-0.220835,-0.363131)">
            <rect x="96.464" y="33.106" width="11.514" height="11.514" style="fill:rgb(251,255,249);"/>
          </g>
          <g transform="matrix(1,0,0,1,-0.220835,-0.363131)">
            <path d="M108.478,32.606L95.964,32.606L95.964,45.12L108.478,45.12L108.478,32.606ZM107.478,33.606L107.478,44.12L96.964,44.12L96.964,33.606L107.478,33.606Z" style="fill:rgb(16,16,16);fill-rule:nonzero;"/>
          </g>
        </g>
        <g transform="matrix(1,0,0,1,-280,-300)">
          <path d="M348.286,337.5L348.286,332.875L362.36,338.5L348.286,344.125L348.286,339.5L329.44,339.5C328.888,339.5 328.44,339.052 328.44,338.5C328.44,337.948 328.888,337.5 329.44,337.5L348.286,337.5Z" style="fill:rgb(16,16,16);"/>
        </g>
        <g>
          <g transform="matrix(0.991758,0,0,0.991758,2.2185,4.99578)">
            <rect x="12.384" y="23.195" width="21.175" height="21.175" style="fill:rgb(251,255,249);"/>
          </g>
          <g transform="matrix(0.991758,0,0,0.991758,2.2185,4.99578)">
            <path d="M34.062,22.691L11.879,22.691L11.879,44.874L34.062,44.874L34.062,22.691ZM33.054,23.7L33.054,43.866L12.888,43.866L12.888,23.7L33.054,23.7Z" style="fill:rgb(16,16,16);fill-rule:nonzero;"/>
          </g>
        </g>
        <g id="frame" transform="matrix(1,0,0,1,1,1)">
          <path d="M-1,-1L-1,76L121,76L121,-1L-1,-1ZM119,1L119,74L1,74L1,1L119,1Z" style="fill:rgb(16,16,16);fill-rule:nonzero;"/>
        </g>
      </g>
    </g>
  </g>
</svg>