<?xml version="1.0" encoding="UTF-8" standalone="no"?>
<!DOCTYPE svg PUBLIC "-//W3C//DTD SVG 1.1//EN" "http://www.w3.org/Graphics/SVG/1.1/DTD/svg11.dtd">
<svg width="100%" height="100%" viewBox="0 0 122 77" version="1.1" xmlns="http://www.w3.org/2000/svg" xmlns:xlink="http://www.w3.org/1999/xlink" xml:space="preserve" xmlns:serif="http://www.serif.com/" style="fill-rule:evenodd;clip-rule:evenodd;stroke-linejoin:round;stroke-miterlimit:2;">
  <metadata xmlns:rdf="http://www.w3.org/1999/02/22-rdf-syntax-ns#" xmlns:dc11="http://purl.org/dc/elements/1.1/" xmlns:cc="http://creativecommons.org/ns#">
    <rdf:RDF>
      <cc:Work rdf:about="">
        <dc11:format>image/svg+xml</dc11:format>
        <dc11:type rdf:resource="http://purl.org/dc/dcmitype/StillImage"/>
        <cc:license rdf:resource="http://creativecommons.org/licenses/by-sa/4.0/"/>
        <cc:attributionName>codeclou</cc:attributionName>
        <cc:attributionURL rdf:resource="https://codeclou.com"/>
      </cc:Work>
      <cc:License rdf:about="http://creativecommons.org/licenses/by-sa/4.0/">
        <cc:permits rdf:resource="http://creativecommons.org/ns#Reproduction"/>
        <cc:permits rdf:resource="http://creativecommons.org/ns#Distribution"/>
        <cc:permits rdf:resource="http://creativecommons.org/ns#DerivativeWorks"/>
        <cc:requires rdf:resource="http://creativecommons.org/ns#Notice"/>
        <cc:requires rdf:resource="http://creativecommons.org/ns#Attribution"/>
        <cc:requires rdf:resource="http://creativecommons.org/ns#ShareAlike"/>
      </cc:License>
    </rdf:RDF>
  </metadata>
  <g transform="matrix(1,0,0,1,-700,-500)">
    <g id="Message-Single-Green" serif:id="Message Single Green" transform="matrix(1,0,0,1,700,500)">
      <rect x="0" y="0" width="122" height="77" style="fill:none;"/>
      <g>
        <g transform="matrix(1.12472,0,0,1.12472,-4.11623,-6.23996)">
          <rect x="64.608" y="28.235" width="11.514" height="11.514" style="fill:rgb(255,255,141);"/>
        </g>
        <g transform="matrix(1,0,0,1,-700,-500)">
          <path d="M772.147,538.457L776.028,538.5L781.5,533.028L781.5,529.104L772.147,538.457ZM768.578,538.493L770.486,538.492L781.5,527.479L781.5,525.516L779.546,525.508L768.557,536.497L768.578,538.493ZM777.68,538.466L781.5,538.466L781.5,534.654L777.68,538.466ZM777.853,525.566L773.972,525.523L768.5,530.994L768.5,534.919L777.853,525.566ZM772.32,525.557L768.5,525.557L768.5,529.369L772.32,525.557Z" style="fill:rgb(15,208,107);"/>
        </g>
        <g transform="matrix(1.12472,0,0,1.12472,-4.11623,-6.23996)">
          <path d="M76.567,27.79L64.164,27.79L64.164,40.193L76.567,40.193L76.567,27.79ZM75.677,28.679L75.677,39.304L65.053,39.304L65.053,28.679L75.677,28.679Z" style="fill:rgb(16,16,16);fill-rule:nonzero;"/>
        </g>
      </g>
      <g transform="matrix(0.854058,0,0,0.854058,13.8781,0.591165)">
        <path d="M62.199,13.944C62.199,17.798 59.028,20.969 55.174,20.969C51.32,20.969 48.149,17.798 48.149,13.944C48.149,10.09 51.32,6.919 55.174,6.919C59.028,6.919 62.199,10.09 62.199,13.944Z" style="fill:rgb(204,204,204);fill-rule:nonzero;"/>
      </g>
      <g transform="matrix(1,0,0,1,0,-100)">
        <path d="M60.5,118.981C57.164,118.722 54.5,115.897 54.5,112.5C54.5,108.934 57.434,106 61,106C64.566,106 67.5,108.934 67.5,112.5C67.5,115.897 64.836,118.722 61.5,118.981L61.5,131.5L68.5,131.5C68.776,131.5 69,131.724 69,132C69,132.276 68.776,132.5 68.5,132.5L61,132.5C60.724,132.5 60.5,132.276 60.5,132C60.5,131.961 60.505,131.923 60.513,131.886C60.505,131.849 60.5,131.811 60.5,131.772L60.5,118.981ZM55.5,112.5C55.5,115.517 57.983,118 61,118C64.017,118 66.5,115.517 66.5,112.5C66.5,109.483 64.017,107 61,107C57.983,107 55.5,109.483 55.5,112.5Z" style="fill:rgb(16,16,16);fill-rule:nonzero;"/>
      </g>
    </g>
  </g>
</svg>