<?xml version="1.0" encoding="UTF-8" standalone="no"?>
<!DOCTYPE svg PUBLIC "-//W3C//DTD SVG 1.1//EN" "http://www.w3.org/Graphics/SVG/1.1/DTD/svg11.dtd">
<svg width="100%" height="100%" viewBox="0 0 122 77" version="1.1" xmlns="http://www.w3.org/2000/svg" xmlns:xlink="http://www.w3.org/1999/xlink" xml:space="preserve" xmlns:serif="http://www.serif.com/" style="fill-rule:evenodd;clip-rule:evenodd;stroke-linejoin:round;stroke-miterlimit:2;">
  <metadata xmlns:rdf="http://www.w3.org/1999/02/22-rdf-syntax-ns#" xmlns:dc11="http://purl.org/dc/elements/1.1/" xmlns:cc="http://creativecommons.org/ns#">
    <rdf:RDF>
      <cc:Work rdf:about="">
        <dc11:format>image/svg+xml</dc11:format>
        <dc11:type rdf:resource="http://purl.org/dc/dcmitype/StillImage"/>
        <cc:license rdf:resource="http://creativecommons.org/licenses/by-sa/4.0/"/>
        <cc:attributionName>codeclou</cc:attributionName>
        <cc:attributionURL rdf:resource="https://codeclou.com"/>
      </cc:Work>
      <cc:License rdf:about="http://creativecommons.org/licenses/by-sa/4.0/">
        <cc:permits rdf:resource="http://creativecommons.org/ns#Reproduction"/>
        <cc:permits rdf:resource="http://creativecommons.org/ns#Distribution"/>
        <cc:permits rdf:resource="http://creativecommons.org/ns#DerivativeWorks"/>
        <cc:requires rdf:resource="http://creativecommons.org/ns#Notice"/>
        <cc:requires rdf:resource="http://creativecommons.org/ns#Attribution"/>
        <cc:requires rdf:resource="http://creativecommons.org/ns#ShareAlike"/>
      </cc:License>
    </rdf:RDF>
  </metadata>
  <g transform="matrix(1,0,0,1,-420,-200)">
    <g id="Publish-Subscribe-Channel" serif:id="Publish Subscribe Channel" transform="matrix(1,0,0,1,420,200)">
      <rect x="0" y="0" width="122" height="77" style="fill:none;"/>
      <g transform="matrix(1,0,0,1,-420,-200)">
        <path d="M481,255.5L480.974,255.5L480.949,255.499L480.923,255.497L480.898,255.495L480.873,255.492L480.848,255.488L480.823,255.484L480.799,255.48C480.343,255.386 480,254.983 480,254.5L480,239.5L440,239.5C439.448,239.5 439,239.052 439,238.5C439,237.948 439.448,237.5 440,237.5L480,237.5L480,222.5L480.016,222.323L480.069,222.133C480.216,221.763 480.576,221.501 480.998,221.5L507.926,221.5L507.926,216.875L522,222.5L507.926,228.125L507.926,223.5L482,223.5L482,237.5L507.926,237.5L507.926,232.875L522,238.5L507.926,244.125L507.926,239.5L482,239.5L482,253.5L507.926,253.5L507.926,248.875L522,254.5L507.926,260.125L507.926,255.5L481,255.5Z" style="fill:rgb(153,153,153);"/>
      </g>
    </g>
  </g>
</svg>