<?xml version="1.0" encoding="UTF-8" standalone="no"?>
<svg
   xmlns:dc="http://purl.org/dc/elements/1.1/"
   xmlns:cc="http://creativecommons.org/ns#"
   xmlns:rdf="http://www.w3.org/1999/02/22-rdf-syntax-ns#"
   xmlns:svg="http://www.w3.org/2000/svg"
   xmlns="http://www.w3.org/2000/svg"
   xmlns:sodipodi="http://sodipodi.sourceforge.net/DTD/sodipodi-0.dtd"
   xmlns:inkscape="http://www.inkscape.org/namespaces/inkscape"
   version="1.1"
   width="122"
   height="77"
   id="svg3167"
   inkscape:version="0.48.4 r9939"
   sodipodi:docname="Messaging-Systems__Message-Translator.svg">
  <title
     id="title3917">Message Translator</title>
  <metadata
     id="metadata3309">
    <rdf:RDF>
      <cc:Work
         rdf:about="">
        <dc:format>image/svg+xml</dc:format>
        <dc:type
           rdf:resource="http://purl.org/dc/dcmitype/StillImage" />
        <dc:title>Message Translator</dc:title>
        <dc:description>Enterprise Integration Patterns - Messagging Systems - Message Translator</dc:description>
        <cc:license
           rdf:resource="http://creativecommons.org/licenses/by/3.0/" />
        <dc:creator>
          <cc:Agent>
            <dc:title>comSysto GmbH</dc:title>
          </cc:Agent>
        </dc:creator>
        <dc:publisher>
          <cc:Agent>
            <dc:title>comSysto GmbH</dc:title>
          </cc:Agent>
        </dc:publisher>
        <dc:source>http://comsysto.com</dc:source>
        <dc:contributor>
          <cc:Agent>
            <dc:title />
          </cc:Agent>
        </dc:contributor>
        <dc:subject>
          <rdf:Bag>
            <rdf:li>EIP</rdf:li>
            <rdf:li>Enterprise Integration Patterns</rdf:li>
          </rdf:Bag>
        </dc:subject>
        <dc:date>2014-11-05</dc:date>
      </cc:Work>
      <cc:License
         rdf:about="http://creativecommons.org/licenses/by/3.0/">
        <cc:permits
           rdf:resource="http://creativecommons.org/ns#Reproduction" />
        <cc:permits
           rdf:resource="http://creativecommons.org/ns#Distribution" />
        <cc:requires
           rdf:resource="http://creativecommons.org/ns#Notice" />
        <cc:requires
           rdf:resource="http://creativecommons.org/ns#Attribution" />
        <cc:permits
           rdf:resource="http://creativecommons.org/ns#DerivativeWorks" />
      </cc:License>
    </rdf:RDF>
  </metadata>
  <sodipodi:namedview
     pagecolor="#ffffff"
     bordercolor="#666666"
     borderopacity="1"
     objecttolerance="10"
     gridtolerance="10"
     guidetolerance="10"
     inkscape:pageopacity="0"
     inkscape:pageshadow="2"
     inkscape:window-width="1920"
     inkscape:window-height="944"
     id="namedview3307"
     showgrid="false"
     fit-margin-top="0"
     fit-margin-left="0"
     fit-margin-right="0"
     fit-margin-bottom="0"
     inkscape:zoom="2"
     inkscape:cx="-181.12404"
     inkscape:cy="110.29658"
     inkscape:window-x="0"
     inkscape:window-y="22"
     inkscape:window-maximized="1"
     inkscape:current-layer="svg3167"
     showguides="true"
     inkscape:guide-bbox="true" />
  <defs
     id="defs3169" />
  <g
     id="g3177"
     transform="translate(0.99999999,0.99999999)">
    <g
       id="g3179">
      <g
         id="g3181"
         transform="scale(1.2,0.75)">
        <g
           id="g3183">
          <path
             style="fill:#c0f5a9;stroke:none"
             inkscape:connector-curvature="0"
             id="path3185"
             d="m 0,0 100,0 q 0,0 0,0 l 0,100 q 0,0 0,0 L 0,100 q 0,0 0,0 L 0,0 q 0,0 0,0 z" />
          <g
             id="g3187"
             transform="scale(0.83333333,1.3333333)">
            <path
               style="fill:none;stroke:none"
               inkscape:connector-curvature="0"
               id="path3189"
               d="m 0,0 120,0 q 0,0 0,0 l 0,75 q 0,0 0,0 L 0,75 q 0,0 0,0 L 0,0 q 0,0 0,0 z" />
            <path
               style="fill:none;stroke:#333333;stroke-width:2;stroke-miterlimit:10"
               inkscape:connector-curvature="0"
               id="path3191"
               stroke-miterlimit="10"
               d="m 0,0 m 0,0 120,0 q 0,0 0,0 l 0,75 q 0,0 0,0 L 0,75 q 0,0 0,0 L 0,0 q 0,0 0,0 z" />
          </g>
        </g>
        <g
           id="g3193">
          <g
             id="g3195"
             transform="scale(0.83333333,1.3333333)">
            <path
               style="opacity:0;fill:#000000;fill-opacity:0;stroke:none"
               inkscape:connector-curvature="0"
               id="path3197"
               d="m 2.4,1.5 0,71.25 114,0 0,-70.5 -112.8,0 z" />
            <path
               style="opacity:0;fill:none;stroke:#3c7626;stroke-width:2;stroke-miterlimit:10"
               inkscape:connector-curvature="0"
               id="path3199"
               stroke-miterlimit="10"
               d="m 2.4,1.5 m 0,0 0,4 m 0,0 m 0,2 0,4 m 0,0 m 0,2 0,4 m 0,0 m 0,2 0,4 m 0,0 m 0,2 0,4 m 0,0 m 0,2 0,4 m 0,0 m 0,2 0,4 m 0,0 m 0,2 0,4 m 0,0 m 0,2 0,4 m 0,0 m 0,2 0,4 m 0,0 m 0,2 0,4 m 0,0 m 0,2 0,4 m 0,0 m 0.75,1.25 4,0 m 0,0 m 2,0 4,0 m 0,0 m 2,0 4,0 m 0,0 m 2,0 4,0 m 0,0 m 2,0 4,0 m 0,0 m 2,0 4,0 m 0,0 m 2,0 4,0 m 0,0 m 2,0 4,0 m 0,0 m 2,0 4,0 m 0,0 m 2,0 4,0 m 0,0 m 2,0 4,0 m 0,0 m 2,0 4,0 m 0,0 m 2,0 4,0 m 0,0 m 2,0 4,0 m 0,0 m 2,0 4,0 m 0,0 m 2,0 4,0 m 0,0 m 2,0 4,0 m 0,0 m 2,0 4,0 m 0,0 m 2,0 4,0 m 0,0 m 1.25,-0.75 0,-4 m 0,0 m 0,-2 0,-4 m 0,0 m 0,-2 0,-4 m 0,0 m 0,-2 0,-4 m 0,0 m 0,-2 0,-4 m 0,0 m 0,-2 0,-4 m 0,0 m 0,-2 0,-4 m 0,0 m 0,-2 0,-4 m 0,0 m 0,-2 0,-4 m 0,0 m 0,-2 0,-4 m 0,0 m 0,-2 0,-4 m 0,0 m 0,-2 0,-3.75 -0.25,0 m 0,0 m -2,0 -4,0 m 0,0 m -2,0 -4,0 m 0,0 m -2,0 -4,0 m 0,0 m -2,0 -4,0 m 0,0 m -2,0 -4,0 m 0,0 m -2,0 -4,0 m 0,0 m -2,0 -4,0 m 0,0 m -2,0 -4,0 m 0,0 m -2,0 -4,0 m 0,0 m -2,0 -4,0 m 0,0 m -2,0 -4,0 m 0,0 m -2,0 -4,0 m 0,0 m -2,0 -4,0 m 0,0 m -2,0 -4,0 m 0,0 m -2,0 -4,0 m 0,0 m -2,0 -4,0 m 0,0 m -2,0 -4,0 m 0,0 m -2,0 -4,0 m 0,0 m -2,0 -2.55,0 z" />
          </g>
        </g>
      </g>
    </g>
  </g>
  <rect
     style="fill:#e6e6e6;stroke:#000000;stroke-width:1.5;stroke-miterlimit:4;stroke-opacity:1;stroke-dasharray:none"
     id="rect3059"
     width="29.421558"
     height="45.828411"
     x="13.179605"
     y="15.585793" />
  <rect
     style="fill:#e6e6e6;stroke:#000000;stroke-width:1.5;stroke-miterlimit:4;stroke-opacity:1;stroke-dasharray:none"
     id="rect3059-6"
     width="29.421558"
     height="45.828411"
     x="78.991272"
     y="15.585793" />
  <g
     id="g3884"
     transform="translate(0,-0.132588)"
     style="fill:#c2c2c2;fill-opacity:1">
    <rect
       y="22.022459"
       x="17.195393"
       height="2.2980971"
       width="21.38998"
       id="rect3795"
       style="fill:#c2c2c2;fill-opacity:1;stroke:none" />
    <rect
       y="28.408514"
       x="17.195393"
       height="2.2980971"
       width="21.38998"
       id="rect3795-9"
       style="fill:#c2c2c2;fill-opacity:1;stroke:none" />
    <rect
       y="34.794571"
       x="17.195393"
       height="2.2980971"
       width="21.38998"
       id="rect3795-7"
       style="fill:#c2c2c2;fill-opacity:1;stroke:none" />
    <rect
       y="41.180626"
       x="17.195393"
       height="2.2980971"
       width="21.38998"
       id="rect3795-73"
       style="fill:#c2c2c2;fill-opacity:1;stroke:none" />
    <rect
       y="47.566681"
       x="17.195393"
       height="2.2980971"
       width="21.38998"
       id="rect3795-4"
       style="fill:#c2c2c2;fill-opacity:1;stroke:none" />
  </g>
  <g
     id="g3877"
     transform="translate(57.639605,4.065864)"
     style="fill:#c2c2c2;fill-opacity:1">
    <rect
       y="17.824007"
       x="25.367456"
       height="2.2980971"
       width="21.38998"
       id="rect3795-92"
       style="fill:#c2c2c2;fill-opacity:1;stroke:none" />
    <rect
       y="24.210062"
       x="25.367456"
       height="2.2980971"
       width="21.38998"
       id="rect3795-9-0"
       style="fill:#c2c2c2;fill-opacity:1;stroke:none" />
    <rect
       y="30.596119"
       x="25.367456"
       height="2.2980971"
       width="21.38998"
       id="rect3795-7-3"
       style="fill:#c2c2c2;fill-opacity:1;stroke:none" />
    <rect
       y="36.982174"
       x="25.367456"
       height="2.2980971"
       width="21.38998"
       id="rect3795-73-1"
       style="fill:#c2c2c2;fill-opacity:1;stroke:none" />
    <rect
       y="43.368229"
       x="25.367456"
       height="2.2980971"
       width="21.38998"
       id="rect3795-4-0"
       style="fill:#c2c2c2;fill-opacity:1;stroke:none" />
  </g>
  <g
     id="g3911"
     transform="matrix(0.81048628,0,0,1,8.8836853,-0.43495463)">
    <rect
       transform="matrix(0.87863341,0.47749694,-0.47749694,0.87863341,0,0)"
       y="2.5052917"
       x="37.347843"
       height="2"
       width="75.48365"
       id="rect3891"
       style="fill:#000000;fill-opacity:1;stroke:none" />
    <rect
       transform="matrix(0.87863341,-0.47749694,-0.47749694,-0.87863341,0,0)"
       y="-65.913811"
       x="0.1652005"
       height="2"
       width="75.48365"
       id="rect3891-9"
       style="fill:#000000;fill-opacity:1;stroke:none" />
  </g>
</svg>
