<?xml version="1.0" encoding="UTF-8" standalone="no"?>
<!-- Created with Inkscape (http://www.inkscape.org/) -->

<svg
   xmlns:dc="http://purl.org/dc/elements/1.1/"
   xmlns:cc="http://creativecommons.org/ns#"
   xmlns:rdf="http://www.w3.org/1999/02/22-rdf-syntax-ns#"
   xmlns:svg="http://www.w3.org/2000/svg"
   xmlns="http://www.w3.org/2000/svg"
   xmlns:sodipodi="http://sodipodi.sourceforge.net/DTD/sodipodi-0.dtd"
   xmlns:inkscape="http://www.inkscape.org/namespaces/inkscape"
   version="1.1"
   width="122"
   height="77"
   id="svg3167"
   inkscape:version="0.48.4 r9939"
   sodipodi:docname="Messaging-Systems__Message-Endpoint__SINK.svg">
  <title
     id="title3054">Message Endpoint - Sink</title>
  <sodipodi:namedview
     pagecolor="#ffffff"
     bordercolor="#666666"
     borderopacity="1"
     objecttolerance="10"
     gridtolerance="10"
     guidetolerance="10"
     inkscape:pageopacity="0"
     inkscape:pageshadow="2"
     inkscape:window-width="1920"
     inkscape:window-height="944"
     id="namedview92"
     showgrid="false"
     inkscape:zoom="2.9180328"
     inkscape:cx="-134.84143"
     inkscape:cy="50.680991"
     inkscape:window-x="0"
     inkscape:window-y="22"
     inkscape:window-maximized="1"
     inkscape:current-layer="svg3167" />
  <metadata
     id="metadata3309">
    <rdf:RDF>
      <cc:Work
         rdf:about="">
        <dc:format>image/svg+xml</dc:format>
        <dc:type
           rdf:resource="http://purl.org/dc/dcmitype/StillImage" />
        <dc:title>Message Endpoint - Sink</dc:title>
        <dc:description>Enterprise Integration Patterns - Messaging Systems - Message Endpoint</dc:description>
        <cc:license
           rdf:resource="http://creativecommons.org/licenses/by/3.0/" />
        <dc:creator>
          <cc:Agent>
            <dc:title>comSysto GmbH</dc:title>
          </cc:Agent>
        </dc:creator>
        <dc:publisher>
          <cc:Agent>
            <dc:title>comSysto GmbH</dc:title>
          </cc:Agent>
        </dc:publisher>
        <dc:source>http://comsysto.com</dc:source>
        <dc:contributor>
          <cc:Agent>
            <dc:title />
          </cc:Agent>
        </dc:contributor>
        <dc:subject>
          <rdf:Bag>
            <rdf:li>EIP</rdf:li>
            <rdf:li>Enterprise Integration Patterns</rdf:li>
          </rdf:Bag>
        </dc:subject>
        <dc:date>2014-11-05</dc:date>
      </cc:Work>
      <cc:License
         rdf:about="http://creativecommons.org/licenses/by/3.0/">
        <cc:permits
           rdf:resource="http://creativecommons.org/ns#Reproduction" />
        <cc:permits
           rdf:resource="http://creativecommons.org/ns#Distribution" />
        <cc:requires
           rdf:resource="http://creativecommons.org/ns#Notice" />
        <cc:requires
           rdf:resource="http://creativecommons.org/ns#Attribution" />
        <cc:permits
           rdf:resource="http://creativecommons.org/ns#DerivativeWorks" />
      </cc:License>
    </rdf:RDF>
  </metadata>
  <defs
     id="defs3169" />
  <g
     id="g3179"
     transform="matrix(0.75562434,0,0,0.66335479,18.56527,13.604441)"
     style="stroke:#000000;stroke-width:2.11867994;stroke-miterlimit:4;stroke-opacity:1;stroke-dasharray:none">
    <g
       id="g3181"
       transform="scale(1.2,0.75)"
       style="stroke:#000000;stroke-width:2.23328475;stroke-miterlimit:4;stroke-opacity:1;stroke-dasharray:none">
      <g
         id="g3183"
         style="stroke:#000000;stroke-width:2.23328475;stroke-miterlimit:4;stroke-opacity:1;stroke-dasharray:none">
        <path
           inkscape:connector-curvature="0"
           style="fill:#c0f5a9;stroke:#000000;stroke-width:2.23328475;stroke-miterlimit:4;stroke-opacity:1;stroke-dasharray:none"
           id="path3185"
           d="m 0,0 100,0 q 0,0 0,0 l 0,100 q 0,0 0,0 L 0,100 q 0,0 0,0 L 0,0 q 0,0 0,0 z" />
        <g
           id="g3187"
           transform="scale(0.83333333,1.3333333)"
           style="stroke:#000000;stroke-width:2.11867997;stroke-miterlimit:4;stroke-opacity:1;stroke-dasharray:none">
          <path
             inkscape:connector-curvature="0"
             style="fill:none;stroke:#000000;stroke-width:2.11867997;stroke-miterlimit:4;stroke-opacity:1;stroke-dasharray:none"
             id="path3189"
             d="m 0,0 120,0 q 0,0 0,0 l 0,75 q 0,0 0,0 L 0,75 q 0,0 0,0 L 0,0 q 0,0 0,0 z" />
          <path
             inkscape:connector-curvature="0"
             style="fill:none;stroke:#000000;stroke-width:2.11867997;stroke-miterlimit:4;stroke-opacity:1;stroke-dasharray:none"
             id="path3191"
             d="m 0,0 m 0,0 120,0 q 0,0 0,0 l 0,75 q 0,0 0,0 L 0,75 q 0,0 0,0 L 0,0 q 0,0 0,0 z" />
        </g>
      </g>
      <g
         id="g3193"
         style="stroke:#000000;stroke-width:2.23328475;stroke-miterlimit:4;stroke-opacity:1;stroke-dasharray:none">
        <g
           id="g3195"
           transform="scale(0.83333333,1.3333333)"
           style="stroke:#000000;stroke-width:2.11867997;stroke-miterlimit:4;stroke-opacity:1;stroke-dasharray:none">
          <path
             inkscape:connector-curvature="0"
             style="opacity:0;fill:#000000;fill-opacity:0;stroke:#000000;stroke-width:2.11867997;stroke-miterlimit:4;stroke-opacity:1;stroke-dasharray:none"
             id="path3197"
             d="m 2.4,1.5 0,71.25 114,0 0,-70.5 -112.8,0 z" />
          <path
             inkscape:connector-curvature="0"
             style="opacity:0;fill:none;stroke:#000000;stroke-width:2.11867997;stroke-miterlimit:4;stroke-opacity:1;stroke-dasharray:none"
             id="path3199"
             d="m 2.4,1.5 m 0,0 0,4 m 0,0 m 0,2 0,4 m 0,0 m 0,2 0,4 m 0,0 m 0,2 0,4 m 0,0 m 0,2 0,4 m 0,0 m 0,2 0,4 m 0,0 m 0,2 0,4 m 0,0 m 0,2 0,4 m 0,0 m 0,2 0,4 m 0,0 m 0,2 0,4 m 0,0 m 0,2 0,4 m 0,0 m 0,2 0,4 m 0,0 m 0.75,1.25 4,0 m 0,0 m 2,0 4,0 m 0,0 m 2,0 4,0 m 0,0 m 2,0 4,0 m 0,0 m 2,0 4,0 m 0,0 m 2,0 4,0 m 0,0 m 2,0 4,0 m 0,0 m 2,0 4,0 m 0,0 m 2,0 4,0 m 0,0 m 2,0 4,0 m 0,0 m 2,0 4,0 m 0,0 m 2,0 4,0 m 0,0 m 2,0 4,0 m 0,0 m 2,0 4,0 m 0,0 m 2,0 4,0 m 0,0 m 2,0 4,0 m 0,0 m 2,0 4,0 m 0,0 m 2,0 4,0 m 0,0 m 2,0 4,0 m 0,0 m 1.25,-0.75 0,-4 m 0,0 m 0,-2 0,-4 m 0,0 m 0,-2 0,-4 m 0,0 m 0,-2 0,-4 m 0,0 m 0,-2 0,-4 m 0,0 m 0,-2 0,-4 m 0,0 m 0,-2 0,-4 m 0,0 m 0,-2 0,-4 m 0,0 m 0,-2 0,-4 m 0,0 m 0,-2 0,-4 m 0,0 m 0,-2 0,-4 m 0,0 m 0,-2 0,-3.75 -0.25,0 m 0,0 m -2,0 -4,0 m 0,0 m -2,0 -4,0 m 0,0 m -2,0 -4,0 m 0,0 m -2,0 -4,0 m 0,0 m -2,0 -4,0 m 0,0 m -2,0 -4,0 m 0,0 m -2,0 -4,0 m 0,0 m -2,0 -4,0 m 0,0 m -2,0 -4,0 m 0,0 m -2,0 -4,0 m 0,0 m -2,0 -4,0 m 0,0 m -2,0 -4,0 m 0,0 m -2,0 -4,0 m 0,0 m -2,0 -4,0 m 0,0 m -2,0 -4,0 m 0,0 m -2,0 -4,0 m 0,0 m -2,0 -4,0 m 0,0 m -2,0 -4,0 m 0,0 m -2,0 -2.55,0 z" />
        </g>
      </g>
    </g>
  </g>
  <rect
     style="fill:#e6e6e6;fill-opacity:1;stroke:#000000;stroke-width:1.71649599;stroke-miterlimit:4;stroke-opacity:1;stroke-dasharray:none"
     id="rect3059-2-2"
     width="19.763075"
     height="19.763075"
     x="73.114136"
     y="28.710247" />
</svg>
