<?xml version="1.0" encoding="UTF-8" standalone="no"?>
<svg
   xmlns:dc="http://purl.org/dc/elements/1.1/"
   xmlns:cc="http://creativecommons.org/ns#"
   xmlns:rdf="http://www.w3.org/1999/02/22-rdf-syntax-ns#"
   xmlns:svg="http://www.w3.org/2000/svg"
   xmlns="http://www.w3.org/2000/svg"
   xmlns:sodipodi="http://sodipodi.sourceforge.net/DTD/sodipodi-0.dtd"
   xmlns:inkscape="http://www.inkscape.org/namespaces/inkscape"
   version="1.1"
   width="122"
   height="77"
   id="svg3167"
   inkscape:version="0.48.4 r9939"
   sodipodi:docname="Messaging-Channels__Messaging-Bridge.svg">
  <title
     id="title3049">Detour</title>
  <metadata
     id="metadata3309">
    <rdf:RDF>
      <cc:Work
         rdf:about="">
        <dc:format>image/svg+xml</dc:format>
        <dc:type
           rdf:resource="http://purl.org/dc/dcmitype/StillImage" />
        <dc:title>Detour</dc:title>
        <dc:description>Enterprise Integration Patterns - System Management - Detour</dc:description>
        <cc:license
           rdf:resource="http://creativecommons.org/licenses/by/3.0/" />
        <dc:creator>
          <cc:Agent>
            <dc:title>comSysto GmbH</dc:title>
          </cc:Agent>
        </dc:creator>
        <dc:publisher>
          <cc:Agent>
            <dc:title>comSysto GmbH</dc:title>
          </cc:Agent>
        </dc:publisher>
        <dc:source>http://comsysto.com</dc:source>
        <dc:contributor>
          <cc:Agent>
            <dc:title />
          </cc:Agent>
        </dc:contributor>
        <dc:subject>
          <rdf:Bag>
            <rdf:li>EIP</rdf:li>
            <rdf:li>Enterprise Integration Patterns</rdf:li>
          </rdf:Bag>
        </dc:subject>
        <dc:date>2014-11-05</dc:date>
      </cc:Work>
      <cc:License
         rdf:about="http://creativecommons.org/licenses/by/3.0/">
        <cc:permits
           rdf:resource="http://creativecommons.org/ns#Reproduction" />
        <cc:permits
           rdf:resource="http://creativecommons.org/ns#Distribution" />
        <cc:requires
           rdf:resource="http://creativecommons.org/ns#Notice" />
        <cc:requires
           rdf:resource="http://creativecommons.org/ns#Attribution" />
        <cc:permits
           rdf:resource="http://creativecommons.org/ns#DerivativeWorks" />
      </cc:License>
    </rdf:RDF>
  </metadata>
  <sodipodi:namedview
     pagecolor="#ffffff"
     bordercolor="#666666"
     borderopacity="1"
     objecttolerance="10"
     gridtolerance="10"
     guidetolerance="10"
     inkscape:pageopacity="0"
     inkscape:pageshadow="2"
     inkscape:window-width="1920"
     inkscape:window-height="944"
     id="namedview3307"
     showgrid="false"
     fit-margin-top="0"
     fit-margin-left="0"
     fit-margin-right="0"
     fit-margin-bottom="0"
     inkscape:zoom="3.6619048"
     inkscape:cx="37.446852"
     inkscape:cy="22.948046"
     inkscape:window-x="0"
     inkscape:window-y="22"
     inkscape:window-maximized="1"
     inkscape:current-layer="svg3167"
     showguides="true"
     inkscape:guide-bbox="true" />
  <defs
     id="defs3169" />
  <g
     id="g3177"
     transform="translate(0.99999999,0.99999999)">
    <g
       id="g3179">
      <g
         id="g3181"
         transform="scale(1.2,0.75)">
        <g
           id="g3183">
          <path
             style="fill:#c0f5a9;stroke:none"
             inkscape:connector-curvature="0"
             id="path3185"
             d="m 0,0 100,0 q 0,0 0,0 l 0,100 q 0,0 0,0 L 0,100 q 0,0 0,0 L 0,0 q 0,0 0,0 z" />
          <g
             id="g3187"
             transform="scale(0.83333333,1.3333333)">
            <path
               style="fill:none;stroke:none"
               inkscape:connector-curvature="0"
               id="path3189"
               d="m 0,0 120,0 q 0,0 0,0 l 0,75 q 0,0 0,0 L 0,75 q 0,0 0,0 L 0,0 q 0,0 0,0 z" />
            <path
               style="fill:none;stroke:#333333;stroke-width:2;stroke-miterlimit:10"
               inkscape:connector-curvature="0"
               id="path3191"
               stroke-miterlimit="10"
               d="m 0,0 m 0,0 120,0 q 0,0 0,0 l 0,75 q 0,0 0,0 L 0,75 q 0,0 0,0 L 0,0 q 0,0 0,0 z" />
          </g>
        </g>
        <g
           id="g3193">
          <g
             id="g3195"
             transform="scale(0.83333333,1.3333333)">
            <path
               style="opacity:0;fill:#000000;fill-opacity:0;stroke:none"
               inkscape:connector-curvature="0"
               id="path3197"
               d="m 2.4,1.5 0,71.25 114,0 0,-70.5 -112.8,0 z" />
            <path
               style="opacity:0;fill:none;stroke:#3c7626;stroke-width:2;stroke-miterlimit:10"
               inkscape:connector-curvature="0"
               id="path3199"
               stroke-miterlimit="10"
               d="m 2.4,1.5 m 0,0 0,4 m 0,0 m 0,2 0,4 m 0,0 m 0,2 0,4 m 0,0 m 0,2 0,4 m 0,0 m 0,2 0,4 m 0,0 m 0,2 0,4 m 0,0 m 0,2 0,4 m 0,0 m 0,2 0,4 m 0,0 m 0,2 0,4 m 0,0 m 0,2 0,4 m 0,0 m 0,2 0,4 m 0,0 m 0,2 0,4 m 0,0 m 0.75,1.25 4,0 m 0,0 m 2,0 4,0 m 0,0 m 2,0 4,0 m 0,0 m 2,0 4,0 m 0,0 m 2,0 4,0 m 0,0 m 2,0 4,0 m 0,0 m 2,0 4,0 m 0,0 m 2,0 4,0 m 0,0 m 2,0 4,0 m 0,0 m 2,0 4,0 m 0,0 m 2,0 4,0 m 0,0 m 2,0 4,0 m 0,0 m 2,0 4,0 m 0,0 m 2,0 4,0 m 0,0 m 2,0 4,0 m 0,0 m 2,0 4,0 m 0,0 m 2,0 4,0 m 0,0 m 2,0 4,0 m 0,0 m 2,0 4,0 m 0,0 m 1.25,-0.75 0,-4 m 0,0 m 0,-2 0,-4 m 0,0 m 0,-2 0,-4 m 0,0 m 0,-2 0,-4 m 0,0 m 0,-2 0,-4 m 0,0 m 0,-2 0,-4 m 0,0 m 0,-2 0,-4 m 0,0 m 0,-2 0,-4 m 0,0 m 0,-2 0,-4 m 0,0 m 0,-2 0,-4 m 0,0 m 0,-2 0,-4 m 0,0 m 0,-2 0,-3.75 -0.25,0 m 0,0 m -2,0 -4,0 m 0,0 m -2,0 -4,0 m 0,0 m -2,0 -4,0 m 0,0 m -2,0 -4,0 m 0,0 m -2,0 -4,0 m 0,0 m -2,0 -4,0 m 0,0 m -2,0 -4,0 m 0,0 m -2,0 -4,0 m 0,0 m -2,0 -4,0 m 0,0 m -2,0 -4,0 m 0,0 m -2,0 -4,0 m 0,0 m -2,0 -4,0 m 0,0 m -2,0 -4,0 m 0,0 m -2,0 -4,0 m 0,0 m -2,0 -4,0 m 0,0 m -2,0 -4,0 m 0,0 m -2,0 -4,0 m 0,0 m -2,0 -4,0 m 0,0 m -2,0 -2.55,0 z" />
          </g>
        </g>
      </g>
    </g>
  </g>
  <rect
     style="fill:#000000;fill-opacity:1;stroke:none"
     id="rect3819"
     width="96.055046"
     height="2"
     x="12.112154"
     y="53.754879" />
  <path
     style="fill:none;stroke:#000000;stroke-width:2;stroke-linecap:butt;stroke-linejoin:miter;stroke-opacity:1;stroke-miterlimit:4;stroke-dasharray:none"
     d="m 18.025935,65.671857 c 0,0 17.403074,-45.418174 42.113739,-45.418174 24.710666,0 42.113746,45.418174 42.113746,45.418174"
     id="path3028"
     inkscape:connector-curvature="0"
     sodipodi:nodetypes="czc" />
  <rect
     style="fill:#000014;fill-opacity:1;stroke:none"
     id="rect3798"
     width="1.5"
     height="33.998703"
     x="59.389679"
     y="20.472042" />
  <rect
     style="fill:#000014;fill-opacity:1;stroke:none"
     id="rect3798-0"
     width="1.5"
     height="30.994802"
     x="72.053856"
     y="23.885565" />
  <rect
     style="fill:#000014;fill-opacity:1;stroke:none"
     id="rect3798-0-4"
     width="1.5"
     height="19.320549"
     x="84.718025"
     y="35.901169" />
  <rect
     style="fill:#000014;fill-opacity:1;stroke:none"
     id="rect3798-0-4-7"
     width="1.5"
     height="30.380367"
     x="46.725502"
     y="24.226915" />
  <rect
     style="fill:#000014;fill-opacity:1;stroke:none"
     id="rect3798-0-4-7-2"
     width="1.5"
     height="18.842657"
     x="34.061329"
     y="35.901169" />
</svg>
